<svg xmlns="http://www.w3.org/2000/svg" viewBox="0 0 81.29 81.33"><defs><style>.cls-1{fill:#231f20;}</style></defs><g id="Layer_2" data-name="Layer 2"><g id="Layer_1-2" data-name="Layer 1"><path class="cls-1" d="M.77,3.34l.34,0,.33,0,.33,0c.11,0,.21-.08.32-.1s.24.08.35.06.22-.08.33-.1L3.1,3l.33,0c.11,0,.22-.09.33-.11l.33,0,.33,0c.11,0,.23,0,.34,0s.23,0,.34,0l.34,0c.11,0,.21-.09.32-.11l.33,0,.34,0,.27,0a2.66,2.66,0,0,1,.34,0l.34,0,.33,0c.11,0,.21-.08.32-.1s.22-.09.33-.1.23,0,.34,0L9,2.17c.11,0,.22-.09.33-.1s.23,0,.34,0L10,2c.11,0,.23,0,.34,0l.33,0c.11,0,.22-.09.33-.11l.33,0,.33-.05c.11,0,.22-.09.33-.1s.24.08.35.06.21-.09.32-.1.22-.09.33-.11.22,0,.34,0l.33,0c.11,0,.21-.09.32-.11l.34,0c.11,0,.23,0,.34,0a.83.83,0,0,1,.34.07c.08.1.2.2.22.31s0,.17,0,.34l0,.33c0,.11,0,.12,0,.28l.05.34c0,.16.13.15.16.31s0,.18,0,.34.07.11.09.27l0,.34c0,.16,0,.17,0,.34s0,.17,0,.34.13.15.15.31,0,.12,0,.29l0,.33a.55.55,0,0,1-.06.35.64.64,0,0,1-.31.21c-.16,0-.17,0-.34,0s-.17,0-.28,0-.15.13-.32.16l-.33.05c-.17,0-.19-.09-.35-.07s-.15.14-.26.15l-.33,0c-.17,0-.19-.09-.35-.06l-.34,0-.33,0-.28,0-.33.05c-.16,0-.16.08-.32.1a.88.88,0,0,0-.32.16.79.79,0,0,0,0,.34c0,.17,0,.17,0,.34l.05.33c0,.17,0,.18,0,.34s.08.16.11.33l0,.33c0,.17,0,.17,0,.34s.07.16.1.32l0,.34c0,.16,0,.17,0,.34s.08.16.1.32,0,.18,0,.34.14.15.16.32,0,.17,0,.34,0,.17,0,.4.14.15.16.31,0,.18,0,.34l0,.34c0,.16,0,.17,0,.34s.08.16.1.32,0,.18,0,.34l0,.33c0,.17.08.16.11.33l0,.33c0,.17.08.16.11.33l0,.33c0,.17,0,.17,0,.34s.07.16.1.32,0,.18,0,.35,0,.17,0,.34.08.15.1.32l.05.33c0,.17,0,.18,0,.34l.05.34,0,.33c0,.16.08.16.1.32l.05.34c0,.16.08.15.1.32l.05.33c0,.17-.09.19-.07.35s.14.15.16.32,0,.17,0,.34,0,.17,0,.34.13.15.15.32,0,.17,0,.34.08.16.1.32,0,.18,0,.4.07.1.1.32l.05.34c0,.16-.09.18-.06.34s.08.16.1.33l.05.33c0,.17.08.16.1.33s0,.17,0,.34,0,.17,0,.34.08.16.11.32l0,.33c0,.17,0,.18,0,.34l0,.34,0,.33.05.33c0,.17.08.16.1.33l.05.33,0,.33.05.33c0,.17.08.16.1.33s0,.17,0,.34l0,.33c0,.17.08.16.11.33s-.09.18-.07.35.08.15.11.32l0,.33,0,.34c0,.16,0,.17,0,.34s.14.15.16.31l.05.34c0,.16-.09.18-.07.34a3.72,3.72,0,0,1,.11.38c0,.12,0,.12,0,.34s.13.15.16.32l0,.33,0,.34c0,.16,0,.17,0,.34l.05.33c0,.17.08.16.1.32l.05.34,0,.33c0,.17,0,.17,0,.34s0,.17,0,.34.08.16.1.33,0,.17,0,.34.1.27,0,.34-.21.14-.32.15l-.33,0c-.17,0-.16.08-.33.1s-.12-.09-.29-.07-.16.08-.33.11-.15.07-.32.1-.17,0-.34,0l-.28,0c-.16,0-.17,0-.34,0s-.16.08-.32.1l-.34,0c-.16,0-.15.08-.27.1s-.18-.09-.34-.07-.16.08-.33.11a.65.65,0,0,1-.35-.07.53.53,0,0,1-.15-.31l0-.34c0-.16,0-.17,0-.34s-.14-.15-.16-.31,0-.18,0-.34-.08-.16-.11-.33l0-.33c0-.17,0-.18,0-.34l0-.33c0-.17,0-.18,0-.35s-.08-.15-.11-.32-.08-.16-.1-.32,0-.18,0-.35,0-.17,0-.34l-.05-.33c0-.16-.08-.16-.1-.32s0-.18,0-.4-.07-.1-.1-.27l-.05-.33c0-.22,0-.23,0-.4l0-.33-.05-.33c0-.17-.08-.16-.1-.33L9,30.62c0-.17-.08-.16-.1-.32s0-.18,0-.34,0-.18,0-.35-.13-.15-.16-.31.09-.18.07-.35-.08-.16-.1-.32-.08-.16-.11-.33.09-.18.07-.35-.14-.15-.16-.32.09-.18.06-.34L8.54,27c0-.16-.08-.15-.1-.32l0-.33,0-.34,0-.33c0-.17-.08-.16-.1-.32s.08-.19.06-.35-.14-.15-.16-.32,0-.17,0-.34S8,24.14,8,24s0-.18,0-.34l0-.34,0-.33,0-.33,0-.39,0-.28-.06-.39,0-.33,0-.33,0-.33c0-.17-.08-.16-.1-.33s.09-.18.06-.35-.13-.15-.16-.31l0-.34c0-.16,0-.17,0-.34s-.07-.15-.1-.32,0-.18,0-.34l0-.33,0-.34c0-.16,0-.17,0-.34S7,17.1,7,16.94l0-.34,0-.33c0-.17,0-.17,0-.34l0-.33c0-.17-.08-.16-.1-.33s0-.17,0-.34l0-.33c0-.17-.08-.16-.1-.33l0-.33,0-.33c0-.17.09-.18.07-.35s-.08-.16-.11-.32l0-.34c0-.16-.08-.15-.11-.32s0-.17,0-.4l0-.33c0-.17-.08-.16-.11-.32s0-.18,0-.34-.08-.16-.1-.33,0-.17,0-.34,0-.17,0-.34l0-.33C6,9.38,6,9.39,6,9.22s-.08-.16-.1-.32,0-.18,0-.34l0-.34a.52.52,0,0,0-.16-.31.57.57,0,0,0-.35-.12c-.17,0-.16.08-.33.1S4.82,8,4.66,8s-.12,0-.29,0-.16.08-.32.1l-.33.05c-.17,0-.18,0-.35,0s-.17,0-.34,0-.1.07-.26.1-.16.08-.33.1-.17,0-.34,0-.17,0-.34,0-.1.07-.27.1l-.33,0c-.11,0-.28,0-.35-.07s-.14-.2-.16-.31,0-.18,0-.35S.52,7.56.51,7.45l0-.33L.41,6.79l0-.33c0-.17,0-.18,0-.34S.3,6,.28,5.85s0-.18,0-.34l0-.34,0-.33,0-.28c0-.16-.07-.16-.1-.32l0-.33a.42.42,0,0,1,.12-.36c0-.12.22-.09.33-.1S.66,3.36.77,3.34Z"/><path class="cls-1" d="M21,.81c.17,0,.17,0,.34,0l.28,0,.33,0c.17,0,.18,0,.34,0l.28,0c.17,0,.16-.12.33-.13s.18.1.34.09.16-.13.33-.14l.28,0,.34,0c.16,0,.17.1.34.09l.33,0c.12,0,.11-.07.28-.08s.16-.07.33-.08l.34,0,.28,0c.16,0,.17,0,.34,0l.33,0c.17,0,.16-.07.33-.08s.23.1.29.15a.39.39,0,0,1,.13.27c.07.17,0,.17.08.33s.07.17.08.34,0,.16.08.33l0,.33c.07.17.18.1.19.27s-.05.17,0,.34l0,.33a.7.7,0,0,1,.08.33c0,.17.07.17.14.33s-.05.17,0,.34.18.16.19.32,0,.17,0,.34l0,.33a.71.71,0,0,1,.08.34c0,.16.12.16.13.32s.07.17.13.27l0,.34a.75.75,0,0,1,.07.33c.07.17,0,.17,0,.34a.94.94,0,0,1,.08.33.75.75,0,0,1,.07.33.64.64,0,0,1,.08.33c.07.17,0,.17.08.33s.07.17.14.33l0,.34c.07.16,0,.16.08.33l0,.33a.7.7,0,0,1,.08.33c.07.17,0,.17,0,.34l.14.33,0,.33c.07.17.06.11.13.27l0,.34a.64.64,0,0,1,.08.33c0,.17.07.16.08.33s.12.16.19.33-.1.17,0,.34.12.16.13.32a.64.64,0,0,0,.08.33l0,.34.14.33a.75.75,0,0,0,.07.33c0,.11-.1.17,0,.34s.12.1.13.27,0,.17.08.33l0,.34c.07.16,0,.16.08.33l0,.33c.06.17.12.16.13.33l.13.33,0,.33.13.33c0,.17,0,.17,0,.34a.64.64,0,0,1,.08.33c.06.17,0,.17.08.33s.06.17.13.33,0,.17,0,.34.07.1.08.27a1.06,1.06,0,0,1,.08.33.83.83,0,0,0,.07.34c0,.16.07.16.08.33s0,.16.08.33a.64.64,0,0,0,.08.33c0,.17,0,.17,0,.33s.13.17.14.33a1.06,1.06,0,0,1,.08.33.83.83,0,0,1,.07.34c.07.16,0,.16.08.33s0,.17,0,.34l.13.32c0,.12,0,.18,0,.34s.06.11.07.28,0,.16.08.33a.7.7,0,0,0,.08.33.64.64,0,0,0,.08.33.64.64,0,0,0,.08.33c0,.17.06.16.13.33l0,.33c.07.17,0,.17.08.34l0,.33c.07.16.13.16.19.32l0,.34a.71.71,0,0,1,.07.28l0,.39c0,.11.06.1.13.27l0,.33c0,.17.13.16.14.33s-.05.17,0,.34.13.16.14.33l0,.33.13.33a.94.94,0,0,0,.08.33l0,.34c.06.16.12.16.13.33s0,.17,0,.33l0,.34c.06.16.12.1.18.26l0,.34c.06.16,0,.17.07.33s.07.16.08.33a.7.7,0,0,1,.08.33c.07.17,0,.17,0,.34s0,.17.08.33.07.16.14.33-.05.17,0,.33l0,.34c.07.16.13.16.19.32a.55.55,0,0,1-.14.4.65.65,0,0,1-.32.2c-.17,0-.17,0-.34,0s-.16.07-.39.08-.17-.1-.34-.08-.17.06-.33.07l-.34,0-.39,0-.33,0c-.17,0-.17.06-.34.07s-.17,0-.33,0-.18,0-.34,0l-.4,0c-.16,0-.16.07-.33.08a.41.41,0,0,1-.28-.09.39.39,0,0,1-.13-.27L30.08,36a.64.64,0,0,0-.08-.33c0-.17-.06-.16-.13-.33l0-.33a.71.71,0,0,1-.08-.34.64.64,0,0,1-.08-.33c0-.16,0-.17,0-.33l0-.34-.13-.32c0-.17-.07-.17-.08-.34s-.07-.16-.14-.32.05-.23,0-.4L29.19,32a.7.7,0,0,0-.08-.33c0-.11-.07-.16-.13-.27a.72.72,0,0,0-.34-.09c-.17,0-.17.07-.33.08s-.18,0-.34,0-.17.06-.33.08-.18,0-.34,0l-.34,0-.33,0-.34,0c-.22,0-.22.07-.39.08s-.17,0-.34,0-.16.07-.33.08-.17,0-.34,0-.16.07-.33.08-.17,0-.34,0l-.33,0c-.17,0-.17.07-.39.09l-.33,0a.31.31,0,0,0-.22.12.49.49,0,0,0-.21.24c0,.17,0,.17,0,.34s0,.17,0,.34.08.22.09.39-.16.12-.15.29,0,.22,0,.39,0,.17,0,.34,0,.17,0,.34l-.09.34a.79.79,0,0,1,0,.34c0,.17.12.16.08.33s-.05.17,0,.34l-.09.34c0,.17,0,.18,0,.34s.07.17,0,.34a.5.5,0,0,1-.14.35.49.49,0,0,1-.27.13c-.17,0-.18-.05-.34,0l-.39,0-.34,0-.33,0c-.17,0-.18,0-.34,0s-.22.07-.39.08l-.34,0c-.16,0-.16.06-.33.07l-.33,0-.39,0c-.17,0-.18,0-.34,0l-.34,0a.42.42,0,0,1-.35-.14c-.06-.11-.12-.22-.07-.33s-.07-.17,0-.34l0-.33c.05-.17.1-.18.15-.35s-.07-.16,0-.34l0-.33c0-.17.1-.18.09-.34s-.07-.17,0-.34a.57.57,0,0,1,0-.34c0-.17,0-.11.09-.28s-.07-.22-.08-.34a.69.69,0,0,1,0-.34c0-.16,0-.17,0-.33l.09-.35,0-.33c0-.17.1-.18.09-.35s0-.16,0-.33-.07-.17-.08-.34.1-.17.15-.34-.07-.17-.08-.33a.81.81,0,0,0,0-.34c0-.17,0-.17,0-.34s.05-.17,0-.29a.76.76,0,0,0,0-.33c.05-.18,0-.17,0-.34s.1-.17.15-.35-.07-.16,0-.33a.67.67,0,0,1,0-.34c0-.17,0-.17,0-.34a.79.79,0,0,0,0-.34l0-.33a.79.79,0,0,0,0-.34c.05-.17.1-.18.09-.35s-.07-.16,0-.33a.79.79,0,0,1,0-.34c0-.17.05-.12.09-.29a.69.69,0,0,1,0-.34c0-.16-.07-.16,0-.33s-.07-.17,0-.34a.69.69,0,0,1,0-.34.54.54,0,0,1,0-.33c0-.17.1-.18.09-.35a.79.79,0,0,0,0-.34c.05-.17,0-.16,0-.34s-.06-.16,0-.33.05-.17,0-.34-.07-.16,0-.33.05-.18,0-.34,0-.12.1-.29l0-.34c0-.17,0-.16,0-.34s0-.17,0-.33,0-.17,0-.34a.79.79,0,0,0,0-.34c.05-.17.1-.17.09-.34s.05-.17.09-.34-.07-.17,0-.34l0-.33.08-.35c0-.17.05-.17,0-.34s0-.11,0-.28-.07-.22-.08-.39a.57.57,0,0,0,0-.34c0-.11.11-.12.1-.28s0-.17,0-.34,0-.17,0-.34,0-.17.09-.34,0-.17,0-.34,0-.17,0-.33l.09-.35c0-.17,0-.17,0-.34s0-.16,0-.33,0-.17,0-.34,0-.17.09-.29l0-.33a.72.72,0,0,0,0-.34l.09-.34c0-.17-.07-.17,0-.34a.69.69,0,0,1,0-.34c0-.16,0-.17.09-.34s-.07-.16-.08-.33.1-.17.09-.34a.79.79,0,0,0,0-.34c0-.17,0-.17,0-.34a.79.79,0,0,0,0-.34l.09-.34c0-.17,0-.17,0-.28a.79.79,0,0,0,0-.34.79.79,0,0,0,0-.34c.05-.17-.06-.16,0-.34s0-.17.09-.34l0-.33c0-.17,0-.17,0-.34s0-.17,0-.34l.09-.34a.57.57,0,0,1,0-.34l0-.33a.81.81,0,0,0,0-.34L20,4.29c0-.16-.07-.16-.08-.33s.1-.17.09-.34a.79.79,0,0,1,0-.34c0-.17.05-.12,0-.28s0-.17,0-.34a.67.67,0,0,0,0-.34.79.79,0,0,0,0-.34c0-.17,0-.17,0-.34a.76.76,0,0,0,0-.33c.05-.12,0-.23.09-.35s.22,0,.33,0V.88C20.8.87,20.79.82,21,.81Zm6.77,24.57c-.06-.16,0-.17-.07-.33a.94.94,0,0,0-.08-.33l0-.34c-.06-.16,0-.16,0-.33l-.13-.33c0-.17-.07-.16-.14-.33s0-.17,0-.34-.13-.16-.19-.32l0-.33a1.05,1.05,0,0,1-.08-.34c-.06-.16.05-.17,0-.33l0-.34c-.07-.16-.12-.16-.14-.32s-.12-.11-.13-.28a.82.82,0,0,0-.07-.33c0-.17-.07-.16-.08-.33s0-.23,0-.39l0-.34c-.07-.16-.12-.1-.19-.26s0-.18,0-.34l0-.39c-.06-.11,0-.17-.08-.33s-.06-.11-.07-.28,0-.22-.08-.38l0-.34c-.06-.16-.17-.1-.18-.27s0-.17,0-.33a.64.64,0,0,0-.08-.33l0-.34-.13-.33c0-.17,0-.23,0-.39s-.12-.1-.13-.27,0-.17,0-.34l0-.33a.7.7,0,0,1-.08-.33c-.07-.17-.13-.16-.14-.33L25,13.16l0-.33-.14-.33c0-.17.05-.17,0-.34a.35.35,0,0,0-.29-.2c-.11,0-.16.12-.21.23l0,.34-.09.34c0,.17.07.17.08.33l-.09.35a.58.58,0,0,1,0,.34c0,.16,0,.17,0,.33s0,.17,0,.34,0,.12-.09.29l0,.34a.76.76,0,0,0,0,.33c0,.18,0,.23,0,.4a.6.6,0,0,1,0,.28c0,.17-.05.17,0,.34s0,.17,0,.34.07.22.08.39-.1.12-.15.29.07.22.08.39a.6.6,0,0,0,0,.28l-.09.34c0,.17.07.22,0,.39a.39.39,0,0,1,0,.29c0,.16-.1.17-.09.34s.07.16,0,.33a.79.79,0,0,1,0,.34c0,.17,0,.18,0,.34l-.09.35a.64.64,0,0,1,0,.33c0,.17.07.17,0,.34s.06.16,0,.34-.05.17,0,.33,0,.17,0,.34,0,.17-.09.35l0,.33-.09.34c0,.17.06.17,0,.34s-.05.17-.09.34.07.17,0,.34a.79.79,0,0,1,0,.34.81.81,0,0,1,0,.34l0,.33c0,.17,0,.17,0,.34a.46.46,0,0,0,.08.39c.11.05.23.15.35.14s.16-.06.33-.08.16-.06.33-.07l.33,0c.17,0,.17.05.34,0s.17,0,.34,0,.17-.07.33-.08.17,0,.34,0l.34,0,.33,0,.34,0,.33,0a.49.49,0,0,0,.38-.19c.11-.12.1-.23,0-.4S27.74,25.55,27.73,25.38Z"/><path class="cls-1" d="M47.93.25a.65.65,0,0,1,.33.06c.12,0,.23.06.34.06s.22.06.33.12.17.12.28.17.22.06.33.12a.78.78,0,0,1,.22.23l.34.17c0,.06.11.17.22.29s.16.11.22.17.11.23.16.34.11.17.16.28.17.17.22.28.11.17.16.29a.76.76,0,0,0,0,.33c0,.12.06.23.05.34s.06.23.06.34a.76.76,0,0,1,.05.33c0,.17-.06.17-.07.34s.06.17,0,.34-.06.16-.06.33v1c0,.17-.05.17-.06.33s.11.17.11.34V7.2c0,.17-.06.16-.06.33s.05.17.05.34v.34c0,.16-.06.16-.07.33s.06.11.06.28v.34c0,.17-.06.16-.06.33s-.06.17-.06.34,0,.17,0,.33.05.17.05.34-.06.17-.06.34v.33c0,.17,0,.17,0,.34s-.06.17-.06.33v.34c0,.17,0,.17,0,.34s-.06.16-.06.33,0,.17,0,.34v1c0,.16-.06.16-.06.33v2c0,.11-.06.22-.06.34v.33c0,.11-.06.22-.06.34s0,.22-.06.33-.12.17-.12.28-.17.16-.23.28-.06.22-.12.33-.17.11-.22.16a1,1,0,0,0-.23.28c-.12.05-.17.16-.23.22s-.17.16-.23.22-.22.16-.28.22-.23.05-.34.1a1.37,1.37,0,0,1-.28.17c-.11.05-.23,0-.34.05s-.17.11-.28.11-.06.05-.11.11-.12.11-.12.16.11.12.16.28a.8.8,0,0,0,0,.34c0,.17.06.17,0,.34s0,.17,0,.33l.1.34c0,.17.11.12.11.28a.8.8,0,0,1,.05.34c.06.17,0,.17,0,.34s.06.17.11.34-.06.16,0,.33.11.17.11.34,0,.17,0,.28a.8.8,0,0,0,.05.34c0,.16,0,.17.11.33s0,.17,0,.34.11.17.11.34A.56.56,0,0,1,49,26l.1.34.11.34c0,.16,0,.16,0,.33s.05.11.11.28-.06.23-.06.39.1.12.16.29,0,.17.05.33-.06.17,0,.34a.58.58,0,0,1,.05.34c.06.17.11.11.11.28l.11.34c0,.16,0,.17.1.33a.8.8,0,0,0,0,.34v.34A.66.66,0,0,1,50,31a.49.49,0,0,1,.05.28c0,.17.11.17.1.34a.58.58,0,0,1,0,.34c.06.17.11.17.11.34s0,.17.05.33a.7.7,0,0,0,0,.29c.06.16,0,.16,0,.33a.58.58,0,0,1,.05.34c.06.17.11.17.11.34s.11.11.16.28a.8.8,0,0,0,.05.34c0,.16-.06.16,0,.33a.58.58,0,0,0,0,.34c0,.17.11.17.1.34s.06.11,0,.28,0,.17.05.34.06.28-.06.39a.4.4,0,0,1-.34.16c-.22,0-.22-.06-.39-.06s-.17.1-.34.1-.16-.11-.33-.12-.17.06-.34.05-.16-.05-.33-.06-.23.11-.4.11-.16-.12-.33-.12h-.34c-.16,0-.16.06-.33,0h-.39c-.17,0-.17,0-.34,0s-.17-.06-.34-.06a.43.43,0,0,1-.27-.12.76.76,0,0,1-.17-.23l-.1-.34a.78.78,0,0,0-.05-.33c0-.17-.06-.17,0-.34s-.06-.11-.11-.28,0-.17-.05-.34.06-.17,0-.33l-.1-.34-.11-.34a.45.45,0,0,0-.05-.28c0-.17.06-.22,0-.39s-.06-.12-.11-.28l-.11-.34c0-.17.06-.17,0-.34s-.11-.17-.11-.28,0-.22-.05-.34,0-.16,0-.33,0-.17-.05-.34-.11-.17-.16-.34a.8.8,0,0,0-.05-.34v-.28c0-.16-.11-.17-.16-.33s.06-.17.06-.34l-.1-.34-.11-.34a.49.49,0,0,0-.05-.28.78.78,0,0,1,0-.33l-.11-.34-.1-.34a.8.8,0,0,0,0-.34c-.06-.11,0-.16,0-.33s-.11-.12-.16-.28a.8.8,0,0,0,0-.34v-.34c-.06-.17,0-.17-.06-.33s-.1-.17-.16-.29a.78.78,0,0,0,0-.33.8.8,0,0,0-.05-.34c0-.17,0-.17,0-.34s0-.17,0-.33l-.11-.34c0-.17,0-.17,0-.34s-.11-.11-.16-.28v-.34l-.1-.33c-.06-.17,0-.17,0-.34s-.06-.17-.05-.28a.58.58,0,0,1,0-.34.68.68,0,0,1-.06-.34.74.74,0,0,0-.21-.22c-.06-.06-.17-.17-.23-.18-.22,0-.22.06-.39.05s-.17-.06-.33-.06-.17.06-.34,0a.83.83,0,0,0-.34.05.78.78,0,0,0-.06.39c0,.17-.06.17-.06.34s.05.17.05.34-.06.11-.06.33V22c0,.11,0,.11,0,.33s-.11.11-.12.28.06.17,0,.34.06.17.05.33-.05.17-.06.34-.06.17-.06.33.05.17.05.34v1.35c0,.16.05.16.05.33s-.12.17-.12.34.05.16.05.33v1c0,.17.06.17.05.34s-.06.16-.06.33,0,.17,0,.34-.06.17-.06.33v.68c0,.16.05.16.05.33s-.06.17-.06.34v.33c0,.17,0,.17,0,.34s-.06.17-.06.34v.33c0,.17,0,.17-.06.34s.11.17.11.33-.12.17-.12.34.11.17.11.34-.06.16-.06.33v.34c0,.16.05.17.05.33v.34c0,.17,0,.17-.06.33v.34c0,.17,0,.17,0,.34s-.12.16-.12.33.11.17.1.34-.11.22-.17.28a.47.47,0,0,1-.34.16h-.61c-.17,0-.17.05-.34.05s-.17-.06-.33-.06-.17-.06-.34-.07-.17.06-.28.06-.17-.06-.33-.07-.17.11-.34.11-.17-.06-.34-.06-.16-.06-.28-.06-.17.05-.33.05H36a.88.88,0,0,1-.33-.12.8.8,0,0,1,0-.34V35c0-.11-.05-.22-.05-.33s.06-.23.06-.34,0-.22,0-.33v-.34c0-.11.06-.22.06-.34s0-.22,0-.33.06-.23.06-.34V32.3c0-.12-.1-.23-.1-.34s.06-.22.06-.34v-1c0-.12,0-.23,0-.34s.06-.22.06-.34v-.67c0-.11.06-.22.06-.33s0-.23,0-.34v-1c0-.05.06-.22.06-.33a2.32,2.32,0,0,1,0-.34,1.8,1.8,0,0,0,.06-.33c0-.06-.05-.17-.05-.28V26c0-.11.06-.22.06-.34s0-.22,0-.33v-.67c0-.12,0-.23,0-.34V24c0-.11.11-.22.11-.33s-.1-.23-.1-.34.11-.22.11-.33,0-.23,0-.34.06-.22.07-.33v-.34c0-.11-.05-.23-.05-.34V20.26c0-.11.05-.22.06-.34s-.06-.22,0-.33.06-.23.06-.34v-.33c0-.12-.1-.23-.1-.34s.06-.22.06-.34.06-.22.06-.33-.05-.23-.05-.34V16.9c0-.11-.05-.23-.05-.34s.06-.22.06-.33S36,16,36,15.89s-.06-.22-.05-.33v-.34c0-.11,0-.22,0-.34s.12-.22.12-.33v-.67c0-.11-.11-.23-.11-.34s.12-.22.12-.33,0-.23,0-.34v-.34c0-.11-.05-.22-.05-.33S36,12,36,11.86v-.33c0-.12-.06-.23-.06-.34S36,11,36,10.85v-.33c0-.11,0-.23,0-.34V9.9a3,3,0,0,1,.06-.33c0-.17-.1-.28-.1-.34S36,9,36,8.89s.06-.27.06-.33,0-.23,0-.34V7.55c0-.11,0-.22,0-.34V6.88c0-.11.12-.22.12-.34s-.06-.22,0-.33v-1c0-.11,0-.23,0-.34s.06-.22.07-.33V2.85c0-.11.06-.23.07-.34V1.17c0-.11-.11-.23-.11-.34s.06-.22.06-.33a.47.47,0,0,1,.18-.28A.38.38,0,0,1,36.62,0H37c.16,0,.16,0,.33.06s.17-.06.34,0,.17.06.33.06.17,0,.34,0h.34c.16,0,.16.06.33.07h.34c.17,0,.17,0,.33,0s.17.06.34.06h.61c.17,0,.17.06.34.07h.34c.16,0,.16,0,.33,0h.34c.17,0,.17.06.33.06s.17,0,.34,0,.17.06.34.06.16,0,.33,0h.34c.17,0,.17-.06.33,0s.17.06.34.06.17.06.33.06.17,0,.34,0,.17.06.34.06.17-.05.33-.05.11.06.34.06.11-.11.28-.1.17.11.33.11h.68c.16,0,.16,0,.33,0ZM45.55,5.31H44.2c-.11,0-.11.06-.28,0s-.16-.11-.33-.11-.17,0-.34,0h-.34c-.16,0-.16,0-.28,0s-.16-.06-.33-.06-.17-.06-.34-.06-.17,0-.33,0a.32.32,0,0,0-.29.16c-.05.06-.17.17-.17.28V6c0,.17,0,.17,0,.34s-.06.17-.07.34V7c0,.17.05.17.05.34s-.06.17-.06.33v.68c0,.16,0,.16-.06.27V9c0,.17.11.17.1.34v.33c0,.17-.06.17-.06.34s0,.17,0,.34v.33c0,.17-.06.17-.06.34s.05.17.05.33-.06.17-.06.34S41,11.84,41,12v.34c0,.17,0,.17,0,.34s.05.17.05.33-.06.17-.06.34v.33c0,.17.06.17,0,.34s0,.17-.06.28v.34c0,.16.11.22.16.33a.43.43,0,0,0,.28.18c.16,0,.17-.06.33-.05h1.29c.17,0,.17.06.34.06H44.7c.17,0,.17,0,.34,0s.17.06.34.06h.28a.33.33,0,0,0,.33-.16c.12-.06.12-.17.12-.34v-.33c0-.11.06-.17.06-.28s-.11-.23-.11-.34.12-.22.12-.33v-.67c0-.12-.05-.23-.05-.34v-1c0-.11.06-.22.06-.33s0-.23,0-.34v-.34c0-.17.05-.11.06-.33a2.32,2.32,0,0,1,0-.34V9.07a2.57,2.57,0,0,0,.06-.28V8.45c0-.11-.11-.22-.11-.33s.06-.23.06-.34.06-.22.06-.33,0-.23,0-.34.06-.22.06-.34,0-.22,0-.33.06-.23.07-.34V5.77a.51.51,0,0,0-.16-.29.4.4,0,0,0-.33-.17Z"/><path class="cls-1" d="M56,.76l.33,0c.17,0,.17,0,.34,0l.28,0,.34,0c.16,0,.17,0,.34,0s.16.12.32.14.18-.1.29-.09.16.07.33.08.16.07.33.08.17,0,.34,0,.16.07.33.08l.28,0c.17,0,.28,0,.33.08s.15.23.14.35-.07.16-.08.33,0,.17,0,.34-.07.16-.08.33l0,.33,0,.34,0,.33c0,.17-.07.17-.08.33s.09.18.08.35-.07.16-.08.33l0,.33c0,.17,0,.17,0,.34s-.07.16-.08.33-.07.16-.08.33,0,.17,0,.34,0,.17,0,.34l0,.34,0,.33,0,.34c0,.16-.07.16-.08.33s0,.17,0,.34-.12.16-.13.32,0,.17,0,.29l0,.33c0,.17,0,.17,0,.4s-.07.1-.08.27,0,.17,0,.34-.07.16-.08.33l0,.34,0,.33c0,.17,0,.17,0,.34l0,.34,0,.33c0,.17-.07.16-.08.33s0,.17,0,.34-.12.16-.14.33.1.17.09.34-.07.16-.09.33.05.17,0,.34-.06.16-.08.33,0,.17,0,.34l0,.34,0,.33c0,.17-.07.16-.08.33s0,.17,0,.34-.07.16-.09.33.05.17,0,.34-.07.16-.08.33,0,.17,0,.34l0,.34,0,.33c0,.17-.07.16-.08.33s0,.17,0,.34-.06.16-.08.33l0,.34,0,.33,0,.34c0,.16.05.17,0,.34s-.07.16-.08.33l0,.33,0,.34,0,.33c0,.17,0,.17,0,.34s-.07.16-.08.33l0,.34,0,.33c0,.17,0,.17,0,.34s-.07.16-.09.33-.06.16-.08.33,0,.17,0,.34l0,.34c0,.16,0,.17,0,.33s-.06.17-.08.34l0,.33c0,.17,0,.17,0,.28s-.13.16-.14.33,0,.17,0,.34,0,.23,0,.34-.07.16-.08.33,0,.17,0,.34-.07.16-.08.33,0,.17,0,.34-.07.16-.09.33.05.17,0,.34l0,.33c0,.17-.07.17-.09.33S58,30,58,30.19s.1.17.09.34l0,.33,0,.34,0,.33c0,.17-.07.17-.08.33s0,.18,0,.34l0,.34,0,.33c0,.17-.07.17-.08.33l0,.34c0,.17,0,.17,0,.34l0,.33,0,.34,0,.33,0,.34c0,.17-.07.16-.08.33s0,.17,0,.34l0,.33c0,.17-.07.17-.08.33l0,.34c0,.11,0,.28-.14.33s-.17,0-.34,0-.17.09-.29.08l-.33,0c-.17,0-.16-.07-.33-.08s-.16-.07-.33-.09-.18.1-.29.09-.16-.12-.33-.13-.17,0-.33,0-.18,0-.34,0-.16-.12-.33-.13-.17,0-.28,0-.17-.07-.33-.08-.18,0-.34,0l-.34,0c-.11,0-.16-.12-.27-.19a.48.48,0,0,1-.09-.29c0-.16-.09-.17-.08-.34s.07-.16.08-.33l0-.34,0-.33c0-.17,0-.17,0-.34s.12-.16.13-.33,0-.17,0-.34,0-.17,0-.33l0-.34c0-.17.13-.16.14-.33s0-.17,0-.34.07-.16.08-.33,0-.17,0-.34,0-.17,0-.34.07-.16.08-.33,0-.17,0-.33.12-.16.13-.33,0-.17,0-.34l0-.34c0-.16.07-.16.08-.33s-.1-.17-.08-.34.07-.16.08-.27.06-.17.08-.34-.05-.17,0-.39l0-.28,0-.33,0-.34c0-.17.07-.16.08-.33s0-.17,0-.34l0-.33c0-.17.06-.17.08-.33s0-.18,0-.34l0-.34,0-.33c0-.17.07-.17.08-.34l0-.33,0-.34c0-.16,0-.17,0-.33s.07-.17.08-.34,0-.17,0-.33.07-.17.08-.34-.1-.17-.08-.34.07-.16.08-.33l0-.33c0-.17.06-.17.08-.33s0-.18,0-.34.07-.17.08-.33l0-.34,0-.33,0-.34,0-.34,0-.33c0-.17,0-.17,0-.34l0-.33,0-.34,0-.33c0-.17.07-.17.08-.33s0-.18,0-.34l0-.34c0-.17.07-.16.08-.33s0-.17,0-.34l0-.33c0-.17.07-.17.08-.33s-.1-.18-.08-.35.07-.16.08-.33l0-.33,0-.34,0-.33c0-.17.07-.17.08-.33s0-.18,0-.34l0-.34,0-.33,0-.34,0-.28,0-.33,0-.34,0-.33,0-.34,0-.33c0-.17.07-.17.09-.33l0-.34c0-.17,0-.17,0-.34s0-.17,0-.34.07-.16.09-.33l0-.33,0-.34,0-.33c0-.17.07-.17.09-.33l0-.34c0-.17,0-.17,0-.34l0-.33c0-.17.07-.17.08-.33l0-.34c0-.17,0-.17,0-.34l0-.33c0-.17.06-.17.08-.33l0-.34c0-.17,0-.17,0-.34s.07-.16.09-.33-.05-.17,0-.34l0-.33c0-.17.07-.17.09-.33l0-.34,0-.33,0-.34,0-.33c0-.12,0-.23.13-.27a.32.32,0,0,1,.3-.15C55.87.69,55.87.75,56,.76Z"/><path class="cls-1" d="M65.92,1.48c.17,0,.16.08.33.11l.33,0c.11,0,.12,0,.28,0s.16.08.33.11l.33,0c.17,0,.16.08.33.11s.17,0,.28,0,.16.08.32.11.18,0,.35,0,.15.08.32.1l.33,0,.28,0c.17,0,.22,0,.32.16s.14.19.12.3-.08.16-.1.33-.08.15-.11.32,0,.17,0,.34,0,.17,0,.34-.08.16-.1.33-.08.15-.11.32.09.18.06.35l0,.33,0,.28c0,.16-.08.16-.11.32s0,.18,0,.34l-.05.34,0,.33c0,.16-.08.16-.1.32s0,.18,0,.34l0,.34,0,.33c0,.16-.08.16-.1.32s0,.18,0,.34-.08.16-.1.33l0,.33,0,.33c0,.17,0,.18,0,.34s-.08.16-.1.27-.07.16-.1.33.09.18.06.35-.08.15-.1.32,0,.17,0,.34-.08.16-.11.33l0,.33,0,.33,0,.33c0,.17,0,.18,0,.34l0,.34c0,.16-.08.15-.11.32l0,.33-.05.34,0,.33c0,.11.09.18.2.2s.16,0,.24-.08.12-.1.2-.26l.16-.31c.07-.1.08-.16.15-.26s.14-.15.21-.26.13-.15.21-.3a3.15,3.15,0,0,0,.16-.32,1.38,1.38,0,0,0,.15-.26l.16-.32c.08-.16.07-.1.21-.25s.12-.1.2-.25l.16-.32c.08-.16.14-.15.21-.25l.16-.32a2.35,2.35,0,0,0,.16-.32c.07-.1.13-.09.2-.25s0-.17.11-.32.13-.1.2-.26.08-.16.16-.31.19-.09.27-.25,0-.16.1-.32.13-.1.21-.26.08-.15.16-.31l.2-.26c.08-.15,0-.16.16-.31s.13-.1.21-.25a2,2,0,0,1,.15-.27l.16-.31c.13-.15.08-.16.21-.31s.13-.09.2-.2,0-.22.17-.37.12-.09.2-.2l.15-.31.16-.32c.14-.15.13-.09.21-.25s.08-.16.16-.32.08-.16.21-.25a.54.54,0,0,1,.2-.26l.16-.31c.08-.16,0-.17.1-.33s.19-.08.27-.24,0-.17.1-.33.08-.15.21-.3.13-.1.2-.15a.5.5,0,0,1,.29-.07c.11,0,.1.07.27.1s.16.08.32.1.18,0,.34,0l.33,0c.17,0,.16.08.27.1s.18,0,.35,0,.17,0,.34,0l.33,0c.16,0,.16.08.32.11s.16.08.27.09.18,0,.34,0,.18,0,.34,0l.34.05a.56.56,0,0,1,.35.27.35.35,0,0,1-.06.45c-.08.16-.14.15-.22.31s0,.16-.1.32a1.6,1.6,0,0,1-.21.25,1.38,1.38,0,0,1-.15.26c-.08.16-.13.15-.21.26a1,1,0,0,1-.21.31c-.07.1,0,.16-.15.26s-.14.15-.22.3a2,2,0,0,0-.15.27c-.13.15-.12.09-.2.25s-.13.09-.21.25,0,.22-.1.33-.19.14-.27.24,0,.17-.1.33-.18.08-.26.24,0,.17-.1.33-.19.08-.27.24a2.12,2.12,0,0,1-.2.25c-.08.16,0,.18-.11.33a1.38,1.38,0,0,1-.15.26c-.13.15-.08.16-.21.31s-.13.09-.26.19,0,.22-.1.32a1,1,0,0,0-.21.31c-.08.1,0,.17-.15.26a.44.44,0,0,1-.21.25.89.89,0,0,1-.22.31,1.38,1.38,0,0,0-.15.26,1.51,1.51,0,0,0-.2.26l-.16.31c-.13.1-.08.16-.21.26l-.16.31a.56.56,0,0,0-.2.25,1.28,1.28,0,0,1-.16.27,1.1,1.1,0,0,0-.21.3c-.07.11-.13.1-.21.26s0,.16-.1.32-.13.1-.21.25-.12.1-.2.26a.44.44,0,0,1-.21.25l-.16.32a1.38,1.38,0,0,1-.15.26l-.16.31c-.13.15-.18.09-.26.25s0,.23.06.35-.08.16-.05.33l.07.35c0,.17.09.13.07.29l.06.35c0,.17,0,.17,0,.34a.65.65,0,0,0,0,.34,1.33,1.33,0,0,0,.07.3l.07.34c0,.18.08.19.06.35a.79.79,0,0,1,0,.34c0,.12.09.13.12.3s0,.17,0,.34l.06.35a.78.78,0,0,0,0,.34,1.33,1.33,0,0,1,.07.3c0,.17,0,.16,0,.34s.08.18.12.35,0,.17,0,.34.1.13.07.3l.07.35c0,.17,0,.16,0,.34a.78.78,0,0,1,0,.34c0,.17.1.12.13.3s-.09.21,0,.33l.06.35.06.35c0,.17.1.13.07.29a.57.57,0,0,1,0,.34l.06.35a.79.79,0,0,1,0,.34c0,.18.1.13.13.3l.06.35c0,.18,0,.17,0,.34s.08.18.12.3,0,.22,0,.34a.78.78,0,0,0,0,.34c0,.18,0,.17,0,.34s.09.19.12.36-.08.16,0,.33.15.14.19.31a.65.65,0,0,0,0,.34l.07.35c0,.12,0,.17,0,.34s0,.17,0,.29a.65.65,0,0,1,0,.34c0,.17.09.18.12.36l.07.34a1.33,1.33,0,0,1,.07.3c0,.17,0,.16,0,.34s.09.18.07.35l.06.34,0,.28c0,.18.09.18.12.36s.08.18.06.35,0,.17.07.29,0,.17.06.35-.08.16,0,.33.09.18.12.36-.08.16-.05.33l.07.35a1.37,1.37,0,0,1,.07.29c0,.17,0,.18.06.35s.09.18.07.29,0,.23,0,.4,0,.12.07.29,0,.17,0,.34l.06.35c0,.12,0,.22-.1.33a.4.4,0,0,1-.37.17c-.17,0-.16-.08-.32-.1s-.18,0-.34,0l-.34,0-.33,0c-.17,0-.17,0-.34,0l-.28,0c-.16,0-.15-.08-.32-.1l-.33-.05c-.17,0-.18,0-.34,0s-.15-.14-.32-.16l-.33,0-.34-.05c-.16,0-.18.09-.34.07s-.15-.14-.2-.2-.15-.14-.14-.25a.65.65,0,0,1,0-.34,1.37,1.37,0,0,0-.07-.29.66.66,0,0,1,0-.34c0-.18-.14-.19-.12-.36s0-.16,0-.34l-.06-.35c0-.16-.09-.12-.07-.29s0-.17,0-.34-.08-.18-.11-.36.08-.16,0-.33-.09-.13-.12-.3,0-.17,0-.34,0-.17,0-.34-.08-.19-.11-.36.07-.16,0-.33l-.06-.35c0-.17-.09-.13-.07-.29l-.06-.35-.06-.35a.5.5,0,0,1,0-.29l-.06-.34c0-.17,0-.18,0-.35s0-.16,0-.34-.08-.18-.12-.35.08-.16,0-.34a1.37,1.37,0,0,0-.07-.29.65.65,0,0,1,0-.34c0-.17-.15-.19-.18-.36a.56.56,0,0,0,0-.34,1.33,1.33,0,0,0-.07-.3.65.65,0,0,0,0-.34.78.78,0,0,1,0-.34.78.78,0,0,1,0-.34c0-.17-.08-.18-.06-.35a1.37,1.37,0,0,0-.07-.29,1,1,0,0,1,0-.34c0-.18-.08-.18-.06-.35s0-.17,0-.34-.08-.18-.06-.35l-.06-.35c0-.16,0-.12-.07-.29l-.07-.35c0-.17,0-.17,0-.34L69.21,24c0-.16,0-.12,0-.28l-.06-.35c0-.18-.09-.18-.07-.35s0-.23-.13-.25-.18.09-.2.2a1.2,1.2,0,0,0-.26.25c-.07.1-.13.09-.25.19s0,.23-.11.32-.13.15-.2.25a.89.89,0,0,0-.22.31,1.6,1.6,0,0,1-.21.25c-.08.16-.12.1-.2.26a1.6,1.6,0,0,0-.21.25l-.21.25a.2.2,0,0,0-.07.11c0,.16-.08.15-.1.32s.09.18.06.35-.08.16-.1.32,0,.18,0,.34l0,.34-.05.33,0,.33c0,.17-.08.16-.1.33l0,.33-.05.33,0,.33,0,.34,0,.33c0,.16-.08.16-.11.32s0,.18,0,.34,0,.18,0,.34-.08.16-.11.33,0,.17,0,.34l0,.33,0,.33,0,.34c0,.16-.08.15-.11.32s-.08.16-.1.33,0,.17,0,.34,0,.17,0,.34-.08.16-.1.32l0,.33,0,.34c0,.16,0,.17,0,.34s-.13.15-.16.31,0,.18,0,.34-.08.16-.11.33,0,.17,0,.34,0,.17,0,.34l0,.33c0,.17-.14.15-.16.32s0,.17,0,.34a.31.31,0,0,1-.21.25c-.07.1-.12.1-.29.07s-.18.09-.29.07-.16-.08-.33-.1-.17,0-.34,0l-.33,0c-.17,0-.16-.08-.33-.11l-.27,0-.34,0-.33,0-.33,0c-.11,0-.1-.07-.27-.1s-.18.09-.35.07-.16-.08-.32-.11l-.34,0a.43.43,0,0,1-.26-.16A.39.39,0,0,1,60,37l0-.34c0-.16-.09-.18-.06-.35s.08-.15.1-.32.08-.16.1-.32l.05-.34c0-.16,0-.17,0-.34l.05-.33,0-.33c0-.17.08-.16.1-.33l0-.33c0-.17,0-.17,0-.34s.08-.16.1-.33,0-.17,0-.34.08-.15.11-.32l0-.33,0-.34c0-.16-.08-.18-.06-.34l0-.34c0-.16.13-.15.16-.31l0-.34L61,30c0-.16,0-.17,0-.34l0-.28c0-.22.08-.21.1-.32l0-.33.05-.33,0-.34c0-.16,0-.17,0-.34l0-.33,0-.33.05-.34,0-.33c0-.16.08-.16.11-.32l0-.33c0-.17,0-.18,0-.35s.08-.15.1-.32-.09-.18-.06-.35l0-.33c0-.17.09-.16.11-.33s.08-.15.1-.32l0-.33c0-.17,0-.18,0-.34s0-.18,0-.34.13-.15.16-.32,0-.17,0-.34.08-.16.1-.33-.08-.18-.06-.34l0-.34c0-.16.08-.15.1-.32s.08-.16.11-.33l0-.33c0-.16,0-.17,0-.34s.08-.16.1-.32l.05-.34,0-.33c0-.16-.09-.18-.07-.35s.08-.15.11-.32l.05-.33c0-.17.08-.16.1-.33s-.09-.18-.06-.35l0-.33c0-.17.07-.16.1-.32l0-.34c0-.16.08-.15.1-.32l0-.33c0-.17-.09-.19-.06-.35s.13-.15.16-.32,0-.17,0-.34l0-.33c0-.17,0-.18,0-.34l.05-.33,0-.34c0-.16.08-.15.1-.32s.08-.16.09-.27,0-.17,0-.34l.05-.33c0-.17,0-.18,0-.34s.08-.16.1-.33l.05-.33c0-.17,0-.18,0-.34s.14-.15.16-.32l0-.33c0-.17,0-.17,0-.34s.08-.16.11-.33,0-.17,0-.34l0-.33c0-.16.08-.16.1-.32l.05-.34c0-.16,0-.17,0-.34l0-.33c0-.17,0-.17,0-.34s.14-.15.16-.32,0-.17,0-.34l0-.33c0-.17.08-.16.11-.32l.05-.34,0-.33c0-.16,0-.17,0-.34s.08-.16.1-.32,0-.18,0-.34l0-.34,0-.33c0-.17.08-.16.1-.32s0-.18,0-.34.08-.16.1-.33l0-.33a.47.47,0,0,1,.15-.26c.13-.1.19-.14.3-.13S65.76,1.46,65.92,1.48Z"/><path class="cls-1" d="M21.64,44.82h.73c.17,0,.17.06.34.06h1.73c.17,0,.17-.06.34-.06h.33c.17,0,.17.06.34.06h.34c.16,0,.16-.06.33-.06s.17.06.34.06h.73c.16,0,.16-.06.33-.06s.17.06.34.06.17-.06.33-.06.17.06.34.06.17-.06.34-.06a.65.65,0,0,1,.33.06.76.76,0,0,1,.34.11c.11,0,.22-.06.33,0a.85.85,0,0,1,.34.11,3.38,3.38,0,0,0,.34.11c.11,0,.16.12.28.17a1.09,1.09,0,0,1,.28.23c.11,0,.22,0,.28.16s.16.17.22.23.11.22.17.28a.9.9,0,0,1,.22.28c.06.11.17.17.23.28a.45.45,0,0,1,.11.28.86.86,0,0,1,.11.33c.06.12.11.17.17.28a.72.72,0,0,0,.11.34.7.7,0,0,0,.06.34v.33c0,.17-.12.17-.12.34s.12.17.12.33v.34c0,.17-.06.17-.06.39v.34c0,.17.06.17.06.33v1c0,.17-.06.17-.06.34s.06.17.06.33-.06.17-.06.34.06.17.06.34-.06.16-.06.33.06.17.06.34v.73a.74.74,0,0,1-.12.33.75.75,0,0,1-.39.11h-1c-.17,0-.17,0-.34,0s-.16,0-.28,0H30c-.17,0-.17,0-.33,0H28.42c-.17,0-.17,0-.34,0s-.22-.11-.28-.16a.38.38,0,0,1-.22-.28c0-.23.05-.23.05-.4v-.33c0-.17-.05-.17-.05-.34s.05-.17.05-.33-.05-.17-.05-.34.11-.17.11-.34v-.67c0-.17-.06-.17-.06-.39s.06-.17.06-.34-.06-.16-.06-.33.06-.17.06-.34a.39.39,0,0,0-.17-.33c-.05-.06-.17-.06-.33-.06S27,50,26.91,50H25.28c-.17,0-.17.06-.33.06s-.17-.11-.34-.11-.17.11-.34.11H23c-.12,0-.23-.06-.34.06s-.06.22-.06.33v.34c0,.17-.11.17-.11.33s.06.17.06.34v.34c0,.16.05.16.05.33v1.35c0,.16-.05.16-.05.33s-.06.17-.06.34.06.17.06.33.05.17.05.34v.67c0,.17-.11.17-.11.34s.11.17.11.33a2.11,2.11,0,0,1-.05.34v.39c0,.17.05.17.05.34s-.05.17-.05.33.05.17.05.34-.11.17-.11.34.06.16.06.33.05.17.05.34v.33c0,.17-.05.17-.05.34v.67c0,.17.05.17.05.34v.33c0,.17-.05.17-.05.34v.34c0,.16.05.16.05.33v.67c0,.17-.11.17-.11.34s.06.17.06.34-.06.16-.06.33.06.17.06.34-.06.17-.06.33.06.17.06.34.05.17.05.34-.05.16-.05.33-.06.17-.06.34v.33c0,.17.06.17.06.34v.34c0,.16.05.16.05.33s-.05.17-.05.34V68c0,.17.05.17.05.34s-.05.16-.05.33v.67c0,.17-.06.17-.06.34s.11.17.11.34-.11.16-.11.33v.39c0,.12.06.12.06.28s.05.23.05.4-.05.16-.05.33.05.17.05.34-.05.17-.05.33v.34c0,.17.05.17.05.34s-.05.16-.05.33-.06.17-.06.34v.33c0,.17.06.17.06.34s.05.17.05.34-.05.16-.05.33.05.17.05.34-.05.17-.05.33.11.17.17.28.16.12.28.12.16.05.33.05.17.06.34.06.17-.11.33-.11h.28c.17,0,.17.05.34.05s.17-.05.34-.05.16.11.33.11.17-.11.28-.11h.34c.17,0,.17.11.33.11h.34c.17,0,.17-.06.34-.06h.28a.44.44,0,0,0,.33-.11.48.48,0,0,0,.17-.34c0-.16-.06-.16-.06-.33s.06-.17.06-.34v-.33c0-.17-.06-.17-.06-.34s.06-.17.06-.34v-1c0-.17-.06-.17-.06-.34s.06-.17.06-.34V71.7c0-.17-.06-.17-.06-.33s-.05-.12-.05-.34.11-.17.11-.34v-.28c0-.16-.06-.16-.06-.33v-1c0-.17-.05-.17-.05-.34s.05-.16.05-.33.06-.17.06-.34-.06-.17-.06-.33v-.68c0-.16.06-.16.06-.33s-.11-.17-.11-.34.11-.17.11-.33a.65.65,0,0,0-.11-.34.48.48,0,0,0-.39-.11h-.34c-.11,0-.11.05-.28.05s-.17-.05-.34-.05H25.9c-.17,0-.17.05-.34.05s-.17-.11-.33-.11h-.34a.83.83,0,0,1-.34-.05.7.7,0,0,1-.05-.34c0-.17-.06-.17-.06-.34s.06-.16.06-.33v-.62c0-.17-.06-.17-.06-.33v-.34c0-.11.06-.11.06-.28v-.34c0-.16-.06-.16-.06-.33s.06-.17.06-.34-.06-.17-.06-.33.06-.12.06-.28-.06-.17-.06-.34.11-.22.17-.28.17-.22.28-.22.17,0,.34,0,.16.06.33.06.17-.06.34-.06h.33c.17,0,.17.06.34.06h.34c.16,0,.16-.06.33-.06h.67c.17,0,.17.06.34.06s.17-.11.34-.11.16,0,.33,0h1c.17,0,.17,0,.34,0s.16,0,.33,0,.17.06.34.06h.33c.17,0,.17-.06.34-.06H32c.16,0,.16.06.33.06s.23,0,.28.11a.32.32,0,0,1,.17.28v.34c0,.16.06.16.06.33v.67c0,.17-.06.17-.06.34s.06.17.06.34-.06.16-.06.33V64c0,.17.06.17.06.34s-.06.17-.06.34.06.16.06.33v.34c0,.17-.06.17-.06.33v2c0,.17.06.17.06.34s-.06.16-.06.33v.34c0,.17.06.17.06.33s-.06.17-.06.34v1.34c0,.17.06.17.06.34v.34c0,.16-.06.16-.06.33v.67c0,.17.06.17.06.34v.34c0,.16-.06.16-.06.33v3c0,.16.06.16.06.33v.34c0,.17-.12.17-.12.33s.12.23.12.34-.06.22-.06.34-.11.22-.17.33.06.23,0,.34-.11.17-.17.28-.16.17-.22.28-.06.22-.11.28l-.28.28c-.06.05-.06.22-.17.28l-.22.22-.34.17c-.06.06-.11.17-.22.22s-.23.06-.34.12-.17.16-.28.16a.66.66,0,0,1-.34.06.72.72,0,0,1-.33.11.9.9,0,0,0-.34.11c-.11,0-.22-.11-.33-.11s-.17.06-.34.06-.17-.06-.34-.06-.16.11-.33.11-.17-.11-.34-.11h-.33c-.23,0-.23.11-.4.11s-.16,0-.33,0-.17-.06-.34-.06-.17.11-.33.11-.17,0-.34,0-.17,0-.34,0-.16-.11-.33-.11h-.34c-.17,0-.17.11-.39.11s-.17-.11-.34-.11h-.33c-.17,0-.17.11-.34.11s-.17,0-.33,0-.17-.06-.34-.06-.17.06-.34.06-.16-.06-.39-.06-.11.11-.33.11-.23,0-.34,0h-.34c-.11-.06-.16-.11-.28-.17s-.22-.06-.33-.11-.23-.06-.34-.11a.41.41,0,0,0-.28-.12.84.84,0,0,0-.33-.16l-.23-.23c-.11,0-.17-.17-.22-.22s-.23-.17-.28-.23-.06-.22-.17-.33-.11-.17-.17-.28-.11-.17-.17-.28-.16-.17-.22-.28v-.34a.72.72,0,0,1-.11-.33.66.66,0,0,0-.06-.34c0-.11.06-.22.06-.34v-.33c0-.17-.06-.17-.06-.34v-.33c0-.17.06-.17.06-.34v-.34c0-.16-.06-.16-.06-.33v-.67c0-.17.06-.17.06-.34v-.34c0-.16-.06-.16-.06-.33V72.37c0-.16.06-.16.06-.33s-.06-.17-.06-.39v-.28c0-.17.06-.17.06-.4s-.06-.16-.06-.28.06-.22.06-.39-.11-.17-.11-.33.05-.17.05-.34V69c0-.17-.05-.17-.05-.34s.11-.17.11-.33-.11-.17-.11-.34.05-.17.05-.34.06-.16.06-.33v-.67c0-.17-.06-.17-.06-.34v-.34c0-.16.06-.16.06-.33s-.06-.17-.06-.34.06-.17.06-.33-.11-.17-.11-.34.11-.17.11-.34-.06-.16-.06-.33v-.34c0-.17-.05-.17-.05-.33s.05-.17.05-.34v-.34c0-.16.06-.16.06-.33V61.9c0-.17-.06-.17-.06-.33s-.05-.17-.05-.34v-.67c0-.17.11-.17.11-.34v-2c0-.17-.06-.17-.06-.34s-.05-.17-.05-.34.05-.16.05-.33v-1c0-.17.06-.17.06-.34s-.06-.16-.06-.33v-.34c0-.17.06-.17.06-.33s-.06-.17-.06-.34.06-.17.06-.34-.06-.16-.06-.33V53.5c0-.17-.05-.17-.05-.39s.05-.17.05-.28V52.1c0-.17.06-.17.06-.33v-.34c0-.17-.06-.17-.06-.34s-.05-.16-.05-.33.11-.17.11-.34-.06-.17-.06-.33v-.34c0-.17.06-.17.06-.34v-.67c0-.11-.06-.22-.06-.33a.85.85,0,0,1,.11-.34c0-.11-.05-.22,0-.34s.12-.16.17-.28.06-.22.11-.33S18,47,18,46.84a31547381725225.78,31547381725225.78,0,0,0,.34-.56.9.9,0,0,0,.22-.28c.11-.06.17-.17.28-.23l.23-.22.33-.17c.11-.05.17-.11.28-.11a.76.76,0,0,1,.34-.11.72.72,0,0,1,.33-.11c.06-.06.17-.06.34-.06a.55.55,0,0,1,.28-.11c.11,0,.22,0,.34,0S21.53,44.82,21.64,44.82Z"/><path class="cls-1" d="M50.78,45.66c0,.17-.06.17-.06.34v1.68c0,.17.06.17.06.33v.34c0,.17-.06.17-.06.34s.06.16.06.33v.67c0,.17-.06.17-.06.34v.67c0,.17.06.17.06.34s-.06.17-.06.39.06.11.06.28-.06.22-.06.39.06.17.06.34v.33c0,.17-.06.17-.06.34s.06.17.06.34-.06.16-.06.33v2.35c0,.17.06.17.06.34v.67c0,.17-.06.17-.06.34s.06.17.06.33v.68c0,.16-.06.16-.06.33v.67c0,.17.06.17.06.34v2c0,.16-.06.16-.06.33v.34c0,.17.06.17.06.33s-.06.17-.06.4v.28c0,.22.06.22.06.39s-.06.17-.06.33.06.17.06.34-.06.17-.06.34v.33c0,.17.06.17.06.34v1c0,.16-.06.16-.06.33v.34c0,.17.06.17.06.33V68c0,.17-.06.17-.06.34s.06.16.06.33v.67c0,.17-.06.17-.06.34V70c0,.16.06.16.06.33s-.06.17-.06.34v.67c0,.17.06.17.06.34v2c0,.17-.06.17-.06.34s.06.17.06.33-.06.17-.06.4.06.16.06.28-.06.22-.06.39v.33c0,.17.06.17.06.34s-.06.17-.06.34v.67c0,.17.06.17.06.33v.34c0,.11-.06.22-.06.34s-.11.22-.11.33-.06.23-.11.28a.9.9,0,0,1-.11.34.74.74,0,0,1-.12.33c-.05.12-.16.17-.22.28l-.22.23a1.14,1.14,0,0,1-.23.28c-.05,0-.11.17-.22.22l-.28.17c-.11.11-.23.11-.34.17a1.56,1.56,0,0,1-.28.17c-.11,0-.17.16-.28.16s-.22,0-.33.06-.23.11-.34.11-.22,0-.34,0a.72.72,0,0,1-.33.11h-.34c-.17,0-.17-.11-.33-.11s-.17.11-.34.11-.17,0-.34,0H44.45c-.17,0-.17-.06-.33-.06s-.17.11-.34.11h-.67c-.17,0-.17,0-.34,0h-.34c-.16,0-.16-.06-.33-.06s-.23.11-.39.11h-.34c-.17,0-.17,0-.34,0s-.16,0-.33,0-.17,0-.34,0H39c-.11,0-.17-.06-.28-.11s-.28,0-.39,0-.17-.17-.28-.17l-.34-.16a.79.79,0,0,0-.28-.17c-.11-.06-.22-.06-.27-.11l-.29-.28-.22-.23-.22-.22c-.06-.11-.17-.17-.23-.28a2,2,0,0,1-.17-.28,1.82,1.82,0,0,1-.22-.28c-.06-.06-.06-.23-.06-.34s-.05-.17-.11-.28a.72.72,0,0,0-.11-.33c0-.12-.06-.23-.06-.34v-.34c0-.16.06-.16.06-.33s-.06-.17-.06-.34.06-.17.06-.33V75.06c0-.17-.06-.17-.06-.33s.06-.17.06-.34v-.34c0-.16-.06-.16-.06-.39s0-.17,0-.33.11-.12.11-.34v-.34c0-.16-.06-.16-.06-.33s.06-.17.06-.34-.11-.17-.11-.33,0-.17,0-.34V70c0-.17.06-.17.06-.34v-1c0-.17-.06-.17-.06-.33s.06-.17.06-.34-.11-.17-.11-.34,0-.16,0-.33v-.67c0-.17.06-.17.06-.34s-.06-.17-.06-.34V65.6c0-.17.06-.17.06-.34v-.33c0-.17-.06-.17-.06-.34v-1c0-.17,0-.17,0-.33s.11-.17.11-.34-.06-.17-.06-.34.06-.16.06-.33v-.73c0-.11-.06-.11-.06-.34V60.5c0-.17.06-.17.06-.33v-.34c0-.17-.06-.17-.06-.34s.06-.16.06-.33v-.34c0-.17-.06-.17-.06-.33s.06-.17.06-.34-.06-.17-.06-.34.06-.16.06-.33v-.34c0-.17-.06-.17-.06-.33s0-.17,0-.34.11-.17.11-.34-.06-.16-.06-.33v-.67c0-.17.06-.17.06-.34s-.06-.17-.06-.34,0-.16,0-.33,0-.17,0-.34.06-.17.06-.33v-.34c0-.17-.06-.17-.06-.34v-.33c0-.17,0-.17,0-.34s.11-.17.11-.33-.06-.17-.06-.34.06-.17.06-.34v-.67c0-.17-.06-.17-.06-.39V49c0-.17.06-.17.06-.33s-.06-.17-.06-.34V48c0-.16,0-.16,0-.33s.11-.17.11-.34-.06-.17-.06-.33,0-.17,0-.34v-.34c0-.16.11-.16.11-.33s-.06-.17-.06-.34v-.33a.3.3,0,0,1,.17-.28.3.3,0,0,1,.28-.17c.17,0,.17-.06.34-.06s.17.06.33.06h.62c.17,0,.17-.06.34-.06s.16.11.33.11.17-.11.34-.11h.61c.17,0,.17.11.34.11s.17,0,.34,0,.16,0,.33,0,.11-.11.28-.11.23.11.34.23a.43.43,0,0,1,.11.28c0,.16.06.16.06.33V46c0,.17-.06.17-.06.33s.06.17.06.34-.06.17-.06.34v.33c0,.17.06.17.06.34s-.06.17-.06.33.06.17.06.34-.06.17-.06.34V49c0,.17.06.17.06.34v.33c0,.17-.06.17-.06.34s.06.17.06.34-.06.22-.06.33.06.17.06.39-.12.17-.12.34.06.17.06.34.06.16.06.33-.12.17-.12.34.12.17.12.33v.34c0,.17-.06.17-.06.34v.67c0,.17.06.17.06.33s-.06.17-.06.34v.34c0,.16.06.16.06.33v2c0,.17-.06.17-.06.33v.34c0,.17.06.17.06.34v.33c0,.17-.12.17-.12.34s.06.17.06.33v.34c0,.17.06.17.06.34s-.06.16-.06.33.06.17.06.34-.06.17-.06.33.06.17.06.34-.06.17-.06.34v.39c0,.17.06.17.06.33s-.06.17-.06.34v.67c0,.17.06.17.06.34v.67c0,.17-.06.17-.06.34v.33c0,.17.06.17.06.34s-.06.17-.06.33v.34c0,.17.06.17.06.34v2.68c0,.17-.12.17-.12.34V70c0,.16.06.16.06.33v.34c0,.17.06.17.06.33s-.06.17-.06.34-.06.17-.06.34.06.16.06.39v1c0,.16.06.16.06.33s-.06.17-.06.34-.06.17-.06.33.12.17.12.34v.34c0,.16-.06.16-.06.33v.34c0,.17.06.17.06.33a.52.52,0,0,0,.11.28c.11.06.17.23.28.23s.17-.11.33-.11h.34c.17,0,.17.05.34.05h.33c.11,0,.11-.05.28-.05s.17.05.34.05.17-.05.33-.05.17.05.34.05h.28c.17,0,.17-.05.34-.05s.16.05.33.05.17-.05.34-.05h.28a.32.32,0,0,0,.28-.12c.11-.11.22-.16.22-.28s0-.16,0-.33,0-.17,0-.34,0-.17,0-.33v-1c0-.17,0-.17,0-.34v-1c0-.16,0-.16,0-.33V71.7c0-.17,0-.17,0-.33s0-.17,0-.4,0-.16,0-.28,0-.22,0-.39,0-.17,0-.33v-.34c0-.17,0-.17,0-.34v-1c0-.17,0-.17,0-.34s0-.17,0-.34v-.33c0-.17,0-.17,0-.34s0-.17,0-.33,0-.17,0-.34v-.34c0-.16,0-.16,0-.33s0-.17,0-.34,0-.17,0-.33,0-.17,0-.34,0-.17,0-.34,0-.16,0-.33,0-.17,0-.34V62.24c0-.17,0-.17,0-.34s0-.17,0-.33,0-.17,0-.34,0-.17,0-.34v-.33c0-.17,0-.17,0-.39s0-.17,0-.34v-.67c0-.17,0-.17,0-.34s0-.17,0-.33v-.34c0-.17,0-.17,0-.34v-.33c0-.17,0-.17,0-.34s0-.17,0-.33,0-.17,0-.34,0-.17,0-.34V55.8c0-.17,0-.17,0-.34v-.67c0-.17,0-.17,0-.34s0-.16,0-.33v-.34c0-.17,0-.17,0-.33s0-.17,0-.34,0-.17,0-.34v-.33c0-.17,0-.17,0-.34s0-.17,0-.33,0-.17,0-.34v-.34c0-.16,0-.16,0-.33s0-.17,0-.34,0-.17,0-.33v-.34c0-.22,0-.22,0-.39v-.67c0-.17,0-.17,0-.34s0-.17,0-.34v-.33c0-.17,0-.17,0-.34V47c0-.17,0-.17,0-.34v-.34c0-.16,0-.16,0-.33s0-.17,0-.34v-.33a.46.46,0,0,1,.16-.28c.12-.12.17-.17.29-.17h.33c.17,0,.17-.06.34-.06h.33c.17,0,.17.06.34.06h.28c.17,0,.17,0,.33,0h.34c.17,0,.17,0,.34,0s.16,0,.28,0,.17,0,.33,0,.17,0,.34,0h.67a.7.7,0,0,1,.34.06.65.65,0,0,1,.11.34Z"/><path class="cls-1" d="M53.59,45a.4.4,0,0,1,.33-.11h1c.17,0,.17-.06.28-.06s.17.11.34.11.17,0,.33,0,.17,0,.34,0,.17,0,.28,0h1.62c.17,0,.29,0,.34.11a.41.41,0,0,1,.17.34c0,.16-.06.16-.06.33v.67c0,.17.06.17.06.34s-.11.17-.11.34.11.16.11.33v.34c0,.17-.06.17-.06.33v.34c0,.17.06.17.06.34v.67c0,.22-.06.22-.06.33V52.1c0,.17.06.17.06.34s-.06.17-.06.33v1c0,.17.06.17.06.34s-.11.17-.11.33.11.17.11.34-.11.17-.11.34,0,.16,0,.33.06.17.06.34v.33c0,.17-.11.17-.11.34s0,.17,0,.34v1c0,.17,0,.17,0,.34s.11.17.11.34v.33c0,.17-.06.17-.06.34v1c0,.22.06.22.06.39s-.06.17-.06.33.06.17.06.34v2.69c0,.17-.06.17-.06.33v.34c0,.17.06.17.06.34v.33c0,.17-.06.17-.06.34v.67c0,.17.06.17.06.34v.33c0,.17-.06.17-.06.34s0,.17,0,.33,0,.17,0,.34v.34c0,.16.06.16.06.33v.67c0,.17-.11.17-.11.34s.11.17.11.34v1.4c0,.16-.11.16-.11.33V72c0,.17.11.17.11.33s-.06.17-.06.34.06.17.06.34-.06.16-.06.33v.67c0,.17.06.17.06.34s-.06.17-.06.34v1a.58.58,0,0,0,.12.34.4.4,0,0,0,.33.11c.17,0,.17.06.34.06s.22-.06.39-.06.17-.05.33-.05h.34c.17,0,.17.05.34.05h.33c.17,0,.17.06.34.06h1.34c.17,0,.17-.11.39-.11s.17.05.34.05h1.34c.17,0,.17-.05.34-.05s.17.11.34.11.17-.06.33-.06.17-.05.34-.05.17.05.34.05a.49.49,0,0,1,.33.11c.11.12.06.23.06.34s.11.17.11.34-.11.16-.11.28,0,.16,0,.33v.67c0,.17.06.17.06.34s-.06.17-.06.28.06.17.06.34-.06.16-.06.33,0,.17,0,.34,0,.17,0,.28v.33c0,.17.06.17.06.34s-.11.22-.17.34a.49.49,0,0,1-.33.11c-.17,0-.17,0-.29,0s-.22-.11-.33-.11-.17.06-.34.06-.16-.06-.33-.06-.17.06-.34.06h-.67c-.17,0-.17,0-.34,0s-.16-.11-.33-.11-.17.06-.34.06-.17-.06-.34-.06-.16.11-.33.11-.17-.11-.34-.11-.17.06-.33.06-.17,0-.34,0-.11,0-.28,0h-.67c-.17,0-.17-.06-.34-.06s-.17.06-.33.06-.17,0-.34,0-.17,0-.34,0-.16,0-.33,0-.17,0-.34,0-.16-.06-.33-.06-.17.06-.34.06h-.67c-.11,0-.11,0-.28,0s-.17,0-.34,0h-.33c-.17,0-.17,0-.34,0h-.33c-.17,0-.17,0-.34,0s-.17-.06-.34-.06-.16.06-.33.06h-.68a.86.86,0,0,1-.33-.11.7.7,0,0,1-.06-.34v-.67c0-.17-.05-.17-.05-.34v-.33c0-.17.05-.17.05-.34s-.05-.17-.05-.34V77.47c0-.17.05-.17.05-.34s-.05-.16-.05-.33V75.45c0-.16.05-.16.05-.33v-.67c0-.17-.05-.17-.05-.34s.05-.17.05-.34-.11-.16-.11-.33.11-.17.11-.34-.05-.17-.05-.33.05-.17.05-.34-.11-.17-.11-.34.06-.16.06-.33v-.34c0-.17.05-.17.05-.33v-1c0-.11-.05-.11-.05-.28s.05-.17.05-.34-.05-.17-.05-.33v-.68c0-.16.05-.16.05-.33v-.34c0-.17-.05-.17-.05-.33s-.06-.17-.06-.34.06-.17.06-.34v-.33c0-.17.05-.17.05-.34s-.05-.17-.05-.33.05-.17.05-.34-.05-.17-.05-.34v-.33c0-.17.05-.17.05-.34s-.05-.17-.05-.33.05-.17.05-.34-.05-.17-.05-.34v-.67c0-.17-.06-.17-.06-.33v-.34c0-.17.06-.17.06-.34V61.4c0-.17.05-.17.05-.34s-.05-.17-.05-.33v-1c0-.17.05-.17.05-.34v-.67c0-.17-.05-.17-.05-.34s.05-.16.05-.33-.05-.17-.05-.34.05-.17.05-.33-.05-.17-.05-.34v-.67c0-.17-.06-.17-.06-.34s.11-.17.11-.33-.05-.17-.05-.34V55c0-.16.05-.16.05-.33v-1c0-.17-.11-.17-.11-.34s.06-.11.06-.33.05-.11.05-.28-.05-.17-.05-.34v-.33c0-.17-.06-.17-.06-.34s.11-.17.11-.34-.05-.16-.05-.33v-.67c0-.17-.06-.17-.06-.34s.11-.17.11-.34-.05-.16-.05-.33.05-.17.05-.34-.05-.17-.05-.33V48c0-.16.05-.16.05-.33v-.34c0-.17-.05-.17-.05-.33v-.34c0-.17-.06-.17-.06-.34s.06-.16.06-.33.05-.17.05-.34-.11-.17-.11-.33A.61.61,0,0,1,53.59,45Z"/></g></g></svg>