<svg xmlns="http://www.w3.org/2000/svg" viewBox="0 0 103.03 89.65"><defs><style>.cls-1{fill:#231f20;}</style></defs><g id="Layer_2" data-name="Layer 2"><g id="Layer_1-2" data-name="Layer 1"><path class="cls-1" d="M12.9,43c-.11,0-.18-.08-.26-.17a.62.62,0,0,1-.32-.17.76.76,0,0,1-.11-.32L12.14,42l-.06-.33L12,41.35c0-.17,0-.18,0-.34L12,40.68c0-.17,0-.18,0-.34s-.08-.16-.11-.32-.09-.16-.12-.32l-.06-.33c0-.17,0-.18,0-.34l-.06-.33c0-.17,0-.18,0-.34s-.09-.16-.12-.32,0-.18,0-.35-.08-.15-.11-.31l-.07-.33c0-.17,0-.18,0-.35s-.09-.15-.12-.32l-.06-.33c0-.16-.09-.15-.12-.32s0-.17,0-.34-.1-.21-.13-.37,0-.18,0-.34l-.07-.33L10.69,34l-.06-.33c0-.17-.09-.16-.12-.32L10.45,33c0-.17,0-.18,0-.34l-.06-.33c0-.17-.09-.16-.12-.32s0-.18,0-.34-.08-.16-.11-.32,0-.18,0-.34l-.06-.33L10,30.39l-.06-.33-.06-.33c0-.17-.09-.16-.12-.32s0-.18,0-.34l-.06-.33c0-.17-.08-.16-.12-.32s0-.18,0-.34l-.07-.33c0-.17-.08-.16-.11-.32s0-.18,0-.34-.09-.16-.12-.32.08-.19.05-.35-.14-.15-.17-.31,0-.18,0-.34S9,25.61,9,25.45s0-.18,0-.34-.08-.16-.11-.32l-.07-.33c0-.17,0-.18,0-.35l-.07-.33-.06-.33-.06-.33-.06-.33-.06-.33-.07-.33-.06-.33c0-.16-.09-.15-.12-.32l-.06-.33-.06-.33c0-.16.08-.18,0-.35S8,20.33,8,20.16s0-.17,0-.34l-.08-.38-.06-.33c0-.17-.09-.16-.12-.32s.08-.19,0-.35l-.06-.33c0-.17-.09-.16-.12-.32s-.09-.16-.12-.32,0-.18,0-.34l-.07-.33c0-.17-.08-.16-.11-.32s.07-.19,0-.35-.08-.16-.11-.32l-.07-.33-.06-.33-.06-.33L7,14.49c0-.17-.09-.16-.12-.32s0-.18,0-.34-.08-.16-.12-.32l-.06-.33c0-.17,0-.18,0-.35l-.06-.33-.06-.33-.06-.33a.66.66,0,0,0-.12-.32,1.33,1.33,0,0,0-.22-.24c-.06,0-.24-.07-.3-.11a.56.56,0,0,0-.34,0c-.17,0-.16.08-.32.11s-.19-.08-.36,0l-.33.06c-.16,0-.15.08-.32.11l-.33.07c-.16,0-.17,0-.34,0s-.15.09-.32.12l-.33.06-.33.07-.33.06-.33.06a.73.73,0,0,1-.35,0,.38.38,0,0,1-.29-.05c-.08-.1-.2-.14-.22-.25s0-.22-.06-.33S.87,11,.84,10.86l-.06-.33L.71,10.2c0-.16-.08-.15-.12-.37L.52,9.5c0-.17.08-.19,0-.35L.51,8.82.45,8.49.39,8.16.32,7.83.25,7.44c0-.16-.09-.15-.12-.32s0-.17,0-.34S0,6.63,0,6.46s0-.23,0-.34a.68.68,0,0,1,.18-.26A.68.68,0,0,1,.36,5.6a.66.66,0,0,1,.32-.12L1,5.42l.33-.07.33-.06c.16,0,.17,0,.34,0l.33-.06c.16,0,.15-.08.32-.12s.17,0,.34,0,.14-.14.31-.18l.33-.06c.16,0,.17,0,.34,0l.33-.07.33-.06L5,4.67c.16,0,.17,0,.34,0l.38-.07L6,4.53l.33-.07c.17,0,.16-.08.32-.12s.18,0,.34,0l.33-.06c.17,0,.16-.09.32-.12s.18,0,.35,0,.15-.09.31-.12.16-.08.32-.11L9,3.85c.17,0,.18,0,.35,0l.33-.07c.16,0,.17,0,.34,0s.15-.09.32-.12l.33-.06L11,3.53l.33-.06.33-.06c.16,0,.15-.09.32-.12s.17,0,.34,0,.17,0,.34,0,.14-.15.31-.18L13.27,3c.16,0,.17,0,.39,0s.18,0,.34,0,.16-.09.32-.12.18,0,.34,0L15,2.83c.17,0,.16-.09.32-.12s.16-.08.32-.12.19.08.35.05.16-.08.32-.12l.33-.06c.12,0,.21.19.28.23s.19.14.2.19a.74.74,0,0,1,.17.31c0,.17,0,.18,0,.34l.06.33.07.33c0,.22.09.21.12.38s0,.17,0,.34l.06.33.07.33c0,.16.08.15.11.32s0,.17,0,.34.14.14.17.31l.08.38.06.33c0,.17-.08.19-.05.36s.14.14.17.3-.06.25-.1.37,0,.17-.12.25-.07.24-.18.26a.78.78,0,0,1-.32.12c-.16,0-.15.08-.32.11s-.19-.08-.35,0-.14.14-.31.17-.18,0-.34,0-.15.08-.32.11-.19-.08-.35,0-.14.14-.31.17-.19-.08-.35-.05-.16.09-.32.12l-.33.06-.33.06a.66.66,0,0,0-.32.12.3.3,0,0,0-.24.22c-.1.07-.07.24-.12.3s-.07.25,0,.36.09.15.12.31,0,.18,0,.35.09.15.12.32l.06.33c0,.16,0,.17,0,.34s.08.15.11.32l.07.33.06.33.06.33.06.33.07.33c0,.16.08.15.11.32s-.07.18,0,.35.08.15.11.32,0,.17,0,.34.09.15.12.32l.06.33.07.38.07.33.06.33.06.33c0,.17,0,.18,0,.34l.06.33c0,.17.09.16.12.32s0,.18,0,.34.08.16.11.32.09.16.12.32l.06.33.07.33.06.33c0,.17,0,.18,0,.34s.08.16.11.32-.08.19,0,.35.08.16.11.32,0,.18,0,.34.09.16.12.32.08.16.12.32,0,.18,0,.34l.07.34c0,.16,0,.17,0,.34l.07.33c0,.16.08.15.11.32s0,.17,0,.34l.06.33c0,.16.09.15.12.32l.06.33.06.33c0,.16,0,.17,0,.34l.06.33.07.33.06.33c0,.16.09.15.12.32s.08.15.11.32-.07.18,0,.35l.06.33c0,.16.14.14.17.31s0,.17,0,.34,0,.17,0,.34.08.15.11.32l.07.33c0,.16,0,.17,0,.34s.15.14.18.31-.08.18,0,.35.09.15.13.37.08.16.11.32,0,.18,0,.34l.06.33.07.33c0,.17.08.16.11.32s-.07.19,0,.35.14.15.17.31,0,.18,0,.34l.06.33.06.34.06.33.07.33.06.33.06.33c0,.16,0,.17,0,.34s.08.15.12.32,0,.17,0,.34.14.14.18.31,0,.17,0,.34.09.15.12.32,0,.17,0,.34,0,.17,0,.34l.06.33c0,.16.08.15.12.32l.06.33.06.33c0,.16,0,.17,0,.34s.08.15.11.32a.72.72,0,0,1,0,.35c-.05.06,0,.23-.06.29a.62.62,0,0,1-.23.28c-.1.07-.22,0-.33.06s-.18,0-.35,0-.15.08-.31.11l-.39.08c-.16,0-.18,0-.34,0s-.15.09-.32.12l-.33.06c-.17,0-.15.09-.32.12l-.33.06c-.17,0-.18,0-.34,0l-.39.07c-.16,0-.17,0-.34,0s-.15.09-.32.12l-.33.06-.33.06c-.16,0-.15.09-.32.12A.73.73,0,0,1,12.9,43Z"/><path class="cls-1" d="M22.65,41.14a1,1,0,0,1-.4-.08,1.41,1.41,0,0,1-.3-.2.83.83,0,0,1-.14-.32.41.41,0,0,1,0-.34.81.81,0,0,1,0-.34l0-.33c0-.17,0-.17,0-.34l.08-.35a.81.81,0,0,1,0-.34c0-.16,0-.17,0-.33a.81.81,0,0,0,0-.34c0-.18,0-.17,0-.34l0-.34c0-.17.1-.18.08-.34s0-.17,0-.29l0-.39a1.58,1.58,0,0,0,.08-.29l0-.33.08-.35c0-.16,0-.17,0-.34s0-.16,0-.34a.81.81,0,0,1,0-.34c0-.16,0-.17,0-.34a.79.79,0,0,0,0-.34.66.66,0,0,0,0-.34,1,1,0,0,0,.09-.28l0-.34a.66.66,0,0,0,0-.34c0-.17.1-.18.08-.34s0-.17,0-.34,0-.18,0-.34a.81.81,0,0,0,0-.34.67.67,0,0,0,0-.34.81.81,0,0,0,0-.34,2.24,2.24,0,0,0,.08-.29.79.79,0,0,1,0-.34c0-.17-.07-.16,0-.34s0-.17.08-.34,0-.17,0-.34-.07-.16,0-.34a.76.76,0,0,1,0-.33c0-.17,0-.18,0-.34l.08-.35,0-.33c0-.18,0-.12.09-.29a.66.66,0,0,1,0-.34c0-.17-.07-.17,0-.34s0-.17.08-.34,0-.17,0-.34,0-.17,0-.34-.07-.16,0-.34l.08-.34a.79.79,0,0,1,0-.34c0-.17,0-.12.09-.29s-.08-.22-.1-.39a1.28,1.28,0,0,0,.15-.29l0-.33c0-.18,0-.17,0-.34a.66.66,0,0,1,0-.34c0-.17,0-.18,0-.34s0-.17,0-.34,0-.18.09-.35,0-.11,0-.28-.08-.22,0-.39,0-.12.09-.29l0-.34c.05-.17.1-.17.09-.34a.66.66,0,0,0,0-.34c0-.17,0-.17,0-.34s.1-.17.14-.35a.67.67,0,0,1,0-.34c0-.16-.07-.16,0-.33s0-.17,0-.28l.08-.35c0-.17-.07-.16,0-.33a.79.79,0,0,1,0-.34c0-.17,0-.18,0-.34s.1-.18.14-.35l0-.34c0-.17,0-.17,0-.34l0-.33a.79.79,0,0,0,0-.34,2.24,2.24,0,0,1,.08-.29l0-.34.08-.34.08-.35c0-.16-.07-.16-.08-.32s.09-.18.13-.35-.07-.17,0-.34a.79.79,0,0,1,0-.34.66.66,0,0,1,0-.34.79.79,0,0,1,0-.34c0-.17.1-.12.08-.29s0-.16,0-.34a.67.67,0,0,1,0-.34c0-.16-.07-.16,0-.33a.79.79,0,0,0,0-.34c0-.17.09-.18.13-.35s-.07-.16,0-.34l0-.33c0-.17.1-.12.09-.29s0-.17,0-.33.09-.18.13-.35-.07-.17,0-.34l0-.33c0-.18.15-.19.14-.35s-.07-.17,0-.34a.66.66,0,0,1,0-.34l0-.33.08-.35a.79.79,0,0,1,0-.34c0-.11,0-.11,0-.28s0-.17,0-.34,0-.17,0-.34.09-.18.08-.35a.66.66,0,0,0,0-.34.79.79,0,0,0,0-.34c0-.17,0-.16,0-.34a.43.43,0,0,1,.15-.29c.1-.12.14-.24.25-.3a.69.69,0,0,1,.38-.15c.17,0,.16-.07.33-.09s.17,0,.28,0l.34,0c.16,0,.16-.07.33-.09s.17.05.34,0l.33,0c.17,0,.16-.07.33-.09s.17,0,.34,0l.33,0,.34,0,.33,0c.17,0,.17-.08.33-.09s.18.09.35.08.16-.07.33-.09.16-.07.33-.08.17,0,.34,0,.16-.07.33-.09.17.05.34,0l.33,0,.28,0a.82.82,0,0,1,.4.08.52.52,0,0,1,.3.2.47.47,0,0,1,.2.32c.07.16,0,.16.08.33a.86.86,0,0,0,.09.33c0,.16.07.16.09.32s0,.17.08.33a.78.78,0,0,0,.09.33.78.78,0,0,0,.09.33c0,.17.07.17.14.33a.61.61,0,0,0,.09.33c0,.16.06.1.13.27s0,.17,0,.33.08.16.15.32l0,.34.14.32c0,.17,0,.18,0,.34l.15.33c0,.16.07.16.14.32s0,.17,0,.34.13.16.2.27.07.16.08.32,0,.17.09.33a.57.57,0,0,0,.09.33l0,.34.14.32c0,.17,0,.17,0,.34s.07.16.14.32,0,.17,0,.34a.86.86,0,0,0,.09.33c0,.16.07.16.09.33a1.54,1.54,0,0,0,.13.26c0,.17.07.17.15.33l0,.33c.07.17,0,.17.08.33s.07.16.15.33,0,.17,0,.33a.64.64,0,0,0,.08.33c0,.17.07.16.14.33s0,.17,0,.33.07.16.08.33a1.33,1.33,0,0,1,.14.27c0,.17,0,.17,0,.33a.78.78,0,0,0,.09.33c0,.17.12.16.19.32s-.09.18,0,.34.13.16.14.33,0,.16.09.32.07.17.09.33a.67.67,0,0,1,.08.28.82.82,0,0,1,.08.33c.07.16,0,.22.09.33s.07.16.09.33a.64.64,0,0,1,.08.33c.07.16,0,.16,0,.33s.13.16.15.33l.14.32,0,.33c.07.17,0,.17.09.33s.07.17.14.33a.6.6,0,0,0,.08.27c0,.17.07.16.09.33a.64.64,0,0,1,.08.33c.07.16,0,.17,0,.34a.78.78,0,0,1,.09.33.77.77,0,0,1,.09.32L39,22c0,.17.07.16.14.32s0,.18,0,.34.07.1.14.27,0,.16,0,.33,0,.17.09.33.07.16.08.33l.14.32,0,.34c.07.16,0,.17.08.33s.07.16.14.32a.78.78,0,0,0,.09.33.78.78,0,0,0,.09.33c0,.11,0,.17,0,.34s.06.1.14.27a.63.63,0,0,0,.08.32c0,.17.07.17.09.33s0,.17,0,.34.13.16.14.32,0,.17.09.33.12.16.13.27,0,.22,0,.39a.39.39,0,0,1,.08.28l.14.32c.08.16,0,.17.09.33s0,.17.09.33,0,.17,0,.33.07.17.09.33l.14.33c0,.16.07.16.08.33s0,.17,0,.33a.78.78,0,0,0,.09.33c0,.17.07.16.08.27l.15.33L42,33c.07.17.12.16.19.32a.78.78,0,0,0,.09.33c0,.17,0,.17,0,.34l0,.33.14.33c0,.16.13.1.14.26s0,.17.09.33.07.17.08.33,0,.17,0,.34,0,.17.09.33.13.15.14.32,0,.17,0,.34l.15.32c0,.17.07.16.08.33s0,.17.09.33.07.11.14.27,0,.28,0,.39-.15.19-.2.3-.09.24-.2.3a.85.85,0,0,1-.38.09l-.34,0c-.16,0-.17-.05-.34,0l-.33,0c-.17,0-.16.07-.33.09l-.34,0-.33,0-.39,0-.34,0c-.16,0-.16.07-.32.08s-.18,0-.34,0-.17.07-.33.08-.18-.09-.35-.08-.16.07-.33.09-.16.07-.33.09-.17,0-.34,0l-.33,0c-.06,0-.18-.09-.25-.2s-.17-.1-.23-.15-.08-.22-.14-.27,0-.22,0-.39-.07-.16-.08-.33,0-.16-.09-.33a.86.86,0,0,0-.09-.33c0-.16-.06-.1-.13-.26a.78.78,0,0,0-.09-.33c0-.17,0-.18,0-.34l0-.39c-.07-.16-.12-.1-.13-.27a.57.57,0,0,1-.09-.33c-.07-.16,0-.22-.09-.38l0-.34a.78.78,0,0,1-.09-.33c-.07-.16-.07-.1-.14-.26s0-.23,0-.39-.13-.11-.2-.27,0-.23,0-.39-.12-.11-.13-.27l-.15-.33c0-.11,0-.22,0-.33s-.12-.16-.24-.2-.18-.1-.24-.15l-.33,0c-.17,0-.17.07-.33.09s-.18,0-.34,0-.18,0-.34,0-.16.07-.33.08l-.34,0-.33,0c-.17,0-.17,0-.34,0l-.39,0c-.17,0-.16.07-.33.08l-.34,0-.33,0c-.17,0-.17,0-.34,0s-.16.07-.33.09l-.33,0a1.68,1.68,0,0,0-.28.08c-.1.06-.22.07-.26.19a.83.83,0,0,0-.15.24c-.05.06,0,.17-.08.29a.79.79,0,0,1,0,.34l0,.33-.08.35c0,.16,0,.17-.08.34s.07.16.09.33,0,.17,0,.34-.09.18-.08.35a.66.66,0,0,0,0,.34l0,.33c0,.17-.1.12-.09.29s0,.17,0,.34.07.22.09.38a.81.81,0,0,0,0,.34l-.08.35a.66.66,0,0,1,0,.34l0,.33c0,.18-.05.12-.09.29a.66.66,0,0,1,0,.34c0,.17,0,.17,0,.34s-.09.18-.08.29,0,.23-.15.3-.16.07-.26.13l-.28,0c-.17,0-.17.07-.33.08l-.28,0c-.17,0-.17,0-.34,0l-.34,0c-.16,0-.16.07-.33.08l-.33,0-.33,0c-.12,0-.12,0-.29,0s-.16.13-.32.15l-.34,0c-.17,0-.17,0-.34,0l-.33,0-.28,0-.34,0-.33,0Zm6.64-15.29.2.32c.12,0,.18.15.3.19a.75.75,0,0,0,.4,0c.16,0,.16-.07.27-.08l.33,0c.17,0,.18,0,.34,0s.18,0,.29,0,.16-.08.33-.09l.33,0,.28,0a.75.75,0,0,0,.39-.09.51.51,0,0,0,.25-.25c.1-.12.09-.23.14-.35s.09-.23,0-.34S33,25,33,24.83s.09-.17,0-.34-.07-.16-.14-.32-.07-.16-.09-.33,0-.17,0-.33-.07-.17-.08-.33a.78.78,0,0,0-.09-.33c0-.17-.07-.17-.14-.33a.56.56,0,0,0-.08-.27l0-.34c-.07-.16,0-.22-.08-.33s-.07-.16-.09-.33a.63.63,0,0,1-.08-.32c-.08-.17,0-.17-.09-.33l0-.34a.78.78,0,0,1-.09-.33.78.78,0,0,1-.09-.33.64.64,0,0,1-.08-.33c-.07-.16-.13-.15-.14-.32s0-.17,0-.34a2.62,2.62,0,0,0-.14-.26.78.78,0,0,0-.09-.33.64.64,0,0,0-.08-.33l0-.34L31,17a.64.64,0,0,0-.08-.33l0-.34L30.75,16l0-.34c-.07-.16,0-.16,0-.33s-.12-.1-.19-.26a.21.21,0,0,0-.25-.21.37.37,0,0,0-.31.2l0,.34c0,.17,0,.16,0,.34s0,.17-.08.34l0,.34c0,.17.07.16,0,.33a.66.66,0,0,1,0,.34c0,.17,0,.17,0,.34a.66.66,0,0,0,0,.34c0,.17,0,.17,0,.34s0,.17,0,.34a1.25,1.25,0,0,1-.09.29c0,.16,0,.17,0,.34s0,.17,0,.34,0,.16,0,.33-.09.18-.08.35a.66.66,0,0,0,0,.34c0,.17,0,.16,0,.34a.67.67,0,0,1,0,.34c0,.16,0,.17,0,.34a.6.6,0,0,0,0,.28c0,.17,0,.22,0,.39a.6.6,0,0,0,0,.28.81.81,0,0,0,0,.34c0,.18-.09.18-.08.35s.07.16,0,.33l0,.34c0,.17-.09.18-.08.34s0,.17,0,.34a.79.79,0,0,1,0,.34c0,.17,0,.17,0,.34l-.08.35C29.22,25.63,29.28,25.73,29.29,25.85Z"/><path class="cls-1" d="M45.28.53c0-.11.17-.17.22-.22s.18-.22.23-.22.23,0,.34,0,.17,0,.33,0h.34c.17,0,.17,0,.34,0s.16.06.33.06h1.4c.17,0,.17.05.34.06h.33c.17,0,.17,0,.34,0s.17.06.33.06h.34c.17,0,.17-.05.34-.05h.67c.17,0,.17,0,.34,0s.16.06.33.06h.67c.17,0,.17.06.34.06s.17,0,.33,0,.17,0,.34,0,.17.06.34.07h1c.12,0,.23.06.34.06h1c.11,0,.22.06.33.06a.83.83,0,0,1,.34.07c.11,0,.22-.06.33-.06s.23.12.34.18a.65.65,0,0,1,.33.06c.11,0,.22.06.34.06s.22-.05.33,0,.22.17.28.17.22.06.33.12.23.06.34.12a.65.65,0,0,1,.33.06c.11,0,.17.17.28.23a.86.86,0,0,1,.33.11,1.36,1.36,0,0,0,.28.18c.05.05.22.11.28.17s.16.17.22.23l.33.17c0,.11.16.17.22.23a.9.9,0,0,1,.22.28A1.14,1.14,0,0,1,62.6,3a1.39,1.39,0,0,1,.16.28c.05.12.16.17.22.29a1.15,1.15,0,0,1,.16.28c.06.11.11.17.16.28s.17.17.22.29.06.22.11.33a.43.43,0,0,0,.11.29.84.84,0,0,0,.1.33c.06.12.06.23.11.34s.17.17.16.28,0,.23,0,.34a.9.9,0,0,0,.11.34.83.83,0,0,0,0,.34c0,.11.05.22.05.33a.83.83,0,0,1,0,.34V8a.65.65,0,0,0,0,.34v.34a.85.85,0,0,1,.11.34c0,.11-.06.22-.07.33a.83.83,0,0,0,0,.34c0,.11.06.22,0,.33s-.06.23-.06.34.06.22,0,.34-.06.22-.06.33-.06.22-.06.34,0,.22,0,.28v.33c0,.11,0,.23,0,.34v.34c0,.11-.06.22-.06.33s0,.23,0,.34-.06.22-.06.33V14c0,.11,0,.22,0,.34s-.06.22-.06.33V15s0,.16-.06.27.11.23.11.34-.12.22-.12.34.11.22.11.33-.06.23-.06.34a.89.89,0,0,0-.06.39c0,.11.05.23,0,.34a1,1,0,0,0-.06.33.82.82,0,0,0-.06.34v.33a.87.87,0,0,1-.12.34c0,.11-.06.22-.06.33s0,.23,0,.34a.74.74,0,0,1-.12.33c0,.11-.06.22-.06.34s-.06.22-.12.33a2.57,2.57,0,0,1-.06.28l-.17.33a.78.78,0,0,1-.12.34c-.06.11-.11.16-.17.27s-.12.23-.17.34-.06.16-.12.28l-.17.33a.78.78,0,0,0-.23.22c-.12.11-.12.22-.18.28s-.22.16-.28.27-.11.17-.23.22-.17.11-.28.22l-.23.22c-.11.05-.11.22-.23.28a1,1,0,0,0-.28.16l-.34.16c-.11.06-.17.11-.28.16a.26.26,0,0,0-.12.34c.05.11,0,.17.05.34s.11.11.16.28,0,.17,0,.34a1.37,1.37,0,0,0,.17.28.58.58,0,0,0,.05.34c0,.16,0,.16,0,.33s.11.17.16.28a1,1,0,0,1,0,.34c.06.17.11.17.16.34a2.34,2.34,0,0,0,.11.28c.05.17,0,.17.05.34s.11.17.16.34,0,.17.05.33.06.17.11.29l.11.33c0,.17,0,.17,0,.34s.11.11.16.28,0,.17,0,.34l.11.34.1.34c.06.11,0,.11.06.28l.1.34.11.33a2.33,2.33,0,0,0,.11.28l.1.34.11.34c0,.11.11.11.16.28s0,.17,0,.34.11.17.11.28.11.17.16.34-.06.17,0,.34.12.11.17.28a.8.8,0,0,1,0,.34l.11.33.1.34c0,.17.11.12.16.28s0,.17.05.34a.68.68,0,0,1,.06.34c.05.17.11.11.16.28s0,.17,0,.34l.1.34c.06.16.11.11.17.28a1.22,1.22,0,0,1,.05.39c-.06.17-.17.22-.23.33s-.17.28-.29.33-.22,0-.39,0-.17.11-.34.1-.16,0-.33-.06-.17.06-.34,0-.17-.06-.33-.06h-.4c-.16,0-.17.06-.33,0s-.17-.11-.34-.11-.17.11-.33.1-.17-.06-.34-.06h-.34c-.16,0-.16.05-.33.05s-.17-.06-.39-.07-.17.06-.34,0-.17,0-.34-.06H58a.74.74,0,0,1-.33-.12c-.11,0-.17-.11-.28-.23s-.16-.11-.16-.22l-.11-.34c0-.17,0-.17,0-.34l-.1-.33-.11-.34a2.33,2.33,0,0,0-.11-.28l-.1-.34c-.06-.17-.11-.17-.17-.34s0-.17,0-.34-.11-.11-.16-.28.06-.17,0-.34l-.11-.33c-.05-.17-.11-.12-.16-.29l-.11-.33-.11-.34a.8.8,0,0,1,0-.34c-.05-.17-.11-.11-.16-.28s0-.17,0-.34-.11-.17-.16-.34a2.34,2.34,0,0,0-.11-.28.7.7,0,0,0,0-.34c-.05-.17,0-.22-.05-.39a2.34,2.34,0,0,1-.11-.28c0-.17-.11-.17-.16-.28l-.11-.34a.8.8,0,0,1-.05-.34c0-.17,0-.17,0-.34l-.1-.33c-.06-.17-.11-.12-.17-.29l-.1-.33a.8.8,0,0,0-.05-.34l-.11-.34c0-.17,0-.17-.11-.28s0-.22,0-.34-.11-.17-.16-.34a.74.74,0,0,1,0-.33c-.05-.17-.11-.17-.16-.29s-.06-.16-.11-.33l-.1-.34c-.06-.17,0-.17-.06-.34a1.43,1.43,0,0,0-.1-.28c-.06-.11-.11-.23-.28-.23s-.17,0-.34,0-.16-.06-.33-.06-.22-.06-.39-.06-.23.16-.23.33-.06.17-.06.33.05.17.05.34v.67c0,.17-.06.17-.07.34s.06.17,0,.34-.11.16-.11.33,0,.17,0,.39.05.17.05.34v1c0,.16-.06.16-.06.33V31c0,.17-.06.17-.06.34v.33c0,.17.05.17.05.34v.34c0,.17,0,.16-.06.33v.34c0,.17,0,.17,0,.34v.33c0,.17,0,.17,0,.34v.67c0,.22-.06.22-.06.39s.05.17.05.34-.12.16-.12.33v.34c0,.17.06.17,0,.33s.06.17.06.34-.06.17-.07.34.06.17,0,.33v1a1.06,1.06,0,0,1-.06.34c-.06.11-.18.16-.23.27s-.17,0-.29.11a.86.86,0,0,1-.33.11c-.17,0-.17-.06-.34-.07s-.17.11-.34.11-.16-.06-.33-.06h-.67c-.17,0-.17-.06-.39-.07s-.17.11-.34.11h-.34c-.16,0-.16-.11-.33-.11s-.17.11-.34.1-.16-.11-.33-.11-.17.1-.34.1-.17-.06-.34-.06-.16,0-.39,0-.17-.06-.33-.06-.17-.06-.28-.12a.43.43,0,0,1-.28-.12c-.11-.11-.11-.22-.16-.28a.55.55,0,0,1,0-.33V38c0-.17-.11-.17-.1-.34s.11-.16.11-.33V37c0-.17-.11-.17-.11-.34s.06-.16.06-.33.06-.17.07-.34-.06-.17,0-.33.06-.17.06-.34-.06-.17,0-.33v-.34c0-.17,0-.17,0-.34s.06-.16.06-.33,0-.17,0-.34.06-.17.07-.33-.06-.17-.05-.34.11-.17.11-.34-.11-.17-.1-.33v-.68c0-.16.06-.16.06-.33V31c0-.16,0-.16.06-.33s-.06-.17-.05-.34.06-.16.06-.33-.05-.17-.05-.34.06-.17.06-.33v-1c0-.17-.06-.17-.05-.34v-.28c0-.17.06-.17.06-.33v-.68c0-.16,0-.16,0-.33v-.67c0-.17.05-.17.06-.34s-.06-.17,0-.34.06-.16.06-.33,0-.17,0-.34.06-.17.06-.33-.05-.17-.05-.34V22.31c0-.17.06-.17.06-.34v-.33c0-.17-.05-.17-.05-.34v-1c0-.17.06-.17.06-.33s-.05-.17-.05-.34.06-.17.06-.34V19c0-.17-.05-.17-.05-.34s0-.17,0-.34v-.33c0-.17.06-.17.06-.34v-1c0-.17-.05-.17-.05-.34s.11-.17.12-.33v-.68c0-.16-.06-.17-.05-.33s.06-.17.06-.34v-.33c0-.17,0-.17,0-.34s.06-.17.07-.34V12.9c0-.17-.11-.17-.11-.34s.12-.16.12-.33v-.67c0-.17-.05-.17-.05-.34V9.88c0-.17.06-.17.06-.34V9.26c0-.16-.05-.17-.05-.33s.06-.17.06-.34,0-.17,0-.34V7.92c0-.17,0-.17.06-.34s-.06-.17,0-.33V6.91c0-.17.06-.17.06-.33V6.24c0-.17,0-.17,0-.34V5.57c0-.17,0-.17.06-.34V3.89c0-.17,0-.17,0-.34s.06-.17.06-.33,0-.17,0-.34V2.54c0-.16.06-.16.06-.33V1.54c0-.17,0-.17,0-.34V.86A.78.78,0,0,1,45.28.53ZM51.85,19c.06.12.11.17.17.29s.16.11.27.17a.48.48,0,0,0,.28.06c.23,0,.22.06.39.06s.17-.05.4-.05.16.12.33.12.17-.11.39-.11h.68c.11-.06.22,0,.33-.05a.8.8,0,0,0,.34-.05c.11-.06.22,0,.34-.05s.17-.17.28-.22.23-.06.28-.11.17-.17.23-.22.23-.17.28-.22a1.36,1.36,0,0,1,.18-.28l.17-.33c.06-.11.11-.17.17-.28v-.33c.06-.12.06-.23.12-.34s0-.22.06-.33.06-.23.06-.34.06-.22.06-.33-.11-.23-.11-.34a.8.8,0,0,0,.07-.34V15c0-.11.06-.22.06-.34s0-.22,0-.33a3.4,3.4,0,0,1,.07-.34c0-.11-.06-.22-.06-.34s.06-.22.07-.33-.06-.23,0-.34-.06-.22-.05-.33a3.43,3.43,0,0,1,.06-.34v-.67c0-.11.06-.22.06-.34V11c0-.11-.06-.23,0-.34V10c0-.11-.06-.23,0-.34s.06-.22.06-.33-.11-.17-.11-.28a.83.83,0,0,1,0-.34c0-.11,0-.23-.11-.34s-.1-.17-.16-.28-.11-.17-.16-.28A.76.76,0,0,0,57,7.56c-.11-.11-.1-.23-.22-.28s-.16-.12-.22-.23a1.42,1.42,0,0,1-.27-.17.73.73,0,0,0-.34-.12c-.05-.06-.16-.06-.28-.06l-.33-.18c-.11,0-.22-.06-.33-.06s-.23,0-.34,0h-.73c-.17,0-.17-.06-.33-.06s-.23,0-.4,0-.16-.06-.39-.07a.86.86,0,0,0-.33.11c-.06,0-.17.11-.29.16s-.06.23-.12.34a.43.43,0,0,0-.11.28V8.65c0,.17,0,.17,0,.34v.67c0,.17-.05.17-.06.33v.34c0,.17,0,.17,0,.34s-.06.16-.06.33,0,.17,0,.34-.06.16-.07.33v.62c0,.17.06.17,0,.34s-.06.16-.06.33v.34c0,.16,0,.17,0,.33V14c0,.17-.11.17-.12.33v.34c0,.17.05.17.05.34v.33c0,.17-.06.17-.06.34s0,.17,0,.33v.34c0,.17.05.17.05.34s-.06.16-.07.33-.05.17-.06.34v.33c0,.17,0,.17,0,.34v.67C51.74,18.78,51.8,18.84,51.85,19Z"/><path class="cls-1" d="M66.83,39.88a.72.72,0,0,1-.26-.19c0-.06-.15-.13-.14-.24a.67.67,0,0,1,0-.34c0-.17,0-.17,0-.34l0-.34c0-.16.08-.16.09-.32s0-.18,0-.34l0-.34c0-.17.07-.16.09-.33s0-.17,0-.34l0-.33c0-.17.07-.16.09-.33s0-.17,0-.34.07-.16.09-.33-.1-.18-.08-.34.13-.16.14-.33l0-.33c0-.17,0-.18,0-.34l0-.34,0-.33c0-.17.07-.16.09-.33s0-.17,0-.34l0-.33c0-.17,0-.18,0-.34l0-.34c0-.17.07-.16.09-.33s.07-.16.09-.33,0-.17,0-.34l0-.33,0-.33c0-.17.07-.17.09-.33l0-.34c0-.16,0-.17,0-.34s0-.17,0-.34.12-.15.14-.27l0-.33,0-.33,0-.34c0-.17,0-.17,0-.34s.07-.16.09-.33,0-.17,0-.34.07-.16.09-.33,0-.17,0-.34l0-.33,0-.33c0-.17.07-.17.09-.33l0-.34c0-.16,0-.17,0-.34s.07-.16.09-.33l0-.33c0-.17,0-.17,0-.34s0-.17,0-.34.07-.16.08-.33.08-.16.09-.33l0-.33c0-.17,0-.17,0-.34s.08-.16.09-.33l0-.33c0-.17,0-.18,0-.34l0-.34,0-.33c0-.17.07-.17.09-.33s0-.18,0-.34l0-.34c0-.16.07-.16.09-.33s0-.17,0-.34l0-.33c0-.17.07-.16.09-.33l0-.33c0-.17,0-.18,0-.34s.07-.16.09-.33,0-.17,0-.34,0-.17,0-.34.07-.16.09-.33.07-.16.09-.33,0-.17,0-.34.08-.16.09-.33l0-.33,0-.34c0-.16,0-.17,0-.34l0-.33,0-.34,0-.33,0-.33,0-.34,0-.33c0-.17,0-.18,0-.34s.07-.16.09-.33.07-.16.09-.33,0-.17,0-.28l0-.34c0-.17.07-.16.08-.33l0-.33c0-.17-.1-.18-.08-.35s.07-.16.09-.33l0-.33,0-.33,0-.34c0-.17,0-.17,0-.34s.08-.16.09-.33.07-.16.09-.33l0-.33c0-.17-.09-.18-.07-.35s.12-.15.14-.32l0-.33c0-.17,0-.18,0-.34s0-.18,0-.34.07-.17.09-.33,0-.18,0-.34.13-.16.15-.33,0-.17,0-.34,0-.17,0-.34.13-.15.15-.32,0-.17,0-.34l0-.33a.44.44,0,0,1,.14-.27,1,1,0,0,1,.19-.26c.12-.05.19-.15.3-.2A.43.43,0,0,1,71,1l.33,0c.22,0,.22.07.39.09s.17,0,.34,0l.33,0,.33,0,.34,0,.33,0,.34,0,.39,0,.33,0,.34,0c.16,0,.16.07.33.09s.17,0,.34,0l.33,0,.33,0c.11,0,.28,0,.33.09a.5.5,0,0,1,.32.2c0,.06,0,.23.08.29s0,.23,0,.34l0,.33c0,.17,0,.18,0,.34s-.08.17-.09.33,0,.17,0,.34-.07.16-.09.33l0,.34c0,.16-.07.16-.09.32s.09.18.08.35-.07.16-.09.33-.07.16-.09.33.09.18.08.34l0,.34c0,.16-.08.16-.09.33l0,.33c0,.17-.07.16-.08.33l0,.33c0,.17.1.18.08.35l0,.33,0,.34c0,.16-.07.16-.08.33l0,.33,0,.34c0,.16,0,.17,0,.33s-.13.16-.14.33,0,.17,0,.34,0,.17,0,.34-.07.16-.09.33,0,.17,0,.34l0,.33c0,.17-.12.16-.14.32s0,.18,0,.34l0,.34c0,.17,0,.17,0,.34s-.07.16-.09.33l0,.33,0,.34,0,.27c0,.17,0,.18,0,.34s-.07.17-.09.33-.07.16-.09.33,0,.17,0,.34,0,.17,0,.34l0,.34c0,.16-.08.16-.09.32s-.07.17-.09.33,0,.18,0,.34l0,.34c0,.17,0,.17,0,.34l0,.33,0,.34c0,.16-.08.16-.09.33l0,.33c0,.17,0,.17,0,.34s-.08.16-.09.33l0,.33,0,.34c0,.16,0,.17,0,.34s-.07.16-.09.33l0,.33c0,.17,0,.17,0,.34s-.08.16-.09.33,0,.17,0,.34l0,.33,0,.34,0,.33c0,.17-.13.16-.14.32s.09.18.07.35l0,.33,0,.34c0,.17-.08.16-.09.33l0,.33c0,.17,0,.18,0,.34s-.07.16-.09.33,0,.17,0,.34-.07.16-.09.33,0,.17,0,.34-.08.16-.09.33l0,.33,0,.34c0,.16,0,.17,0,.34s-.07.16-.08.33l0,.33c0,.17,0,.17,0,.34l0,.33c0,.17-.07.17-.09.33s-.07.16-.09.33.1.18.08.35-.13.15-.14.32,0,.17,0,.34,0,.17,0,.34-.07.16-.09.33,0,.12,0,.28-.13.16-.14.33l0,.33c0,.17,0,.17,0,.34s0,.17,0,.34-.07.16-.09.33,0,.17,0,.34-.07.16-.08.33l0,.33c0,.17,0,.18,0,.34s-.08.16-.09.33l0,.34c0,.16,0,.17,0,.34l0,.33c0,.17-.07.16-.09.33l0,.33c0,.17,0,.18,0,.34s-.07.16-.08.33,0,.17,0,.34-.07.16-.09.33l0,.34a.9.9,0,0,1-.09.32.41.41,0,0,1-.14.27,1,1,0,0,1-.36.19l-.33,0-.34,0c-.16,0-.17,0-.34,0s-.16-.07-.33-.09-.16-.07-.32-.09-.18,0-.34,0-.18,0-.4,0l-.33,0-.34,0-.33,0c-.17,0-.16-.13-.33-.14s-.17,0-.34,0-.17,0-.34,0-.15-.13-.32-.14-.17,0-.39,0l-.34,0C67,40,66.94,40,66.83,39.88Z"/><path class="cls-1" d="M77.13,41a1.09,1.09,0,0,1-.23-.28c-.1-.07-.07-.24-.1-.36s-.08-.18-.06-.29.09-.16.12-.32l.06-.33c0-.17,0-.18,0-.34l.06-.33c0-.17.09-.16.12-.32l.06-.33.06-.33c0-.17,0-.18,0-.34s.09-.16.12-.32l.06-.33.06-.33c0-.17,0-.18,0-.34s.09-.16.12-.32l.06-.33.07-.33.06-.33c0-.17.08-.16.12-.32s-.08-.19,0-.35.09-.16.12-.32,0-.18,0-.34l.07-.33.06-.33c0-.17.09-.16.12-.32l.06-.33.06-.33c0-.17,0-.18,0-.34s.09-.16.12-.32,0-.18,0-.34.08-.16.12-.32l.06-.33c0-.17,0-.18,0-.34l0-.28c0-.16.08-.15.12-.32l.06-.33.06-.33.06-.33c0-.16,0-.17,0-.34s.09-.15.12-.32l.06-.33c0-.16,0-.17,0-.34s.09-.15.12-.32l.06-.33c0-.16.09-.15.12-.32s0-.17,0-.34l.06-.33c0-.16,0-.17,0-.34l.06-.33.06-.33.07-.33.06-.33c0-.17.09-.16.12-.32s0-.18,0-.34.09-.16.12-.32l.06-.33.07-.33.06-.33c0-.17,0-.18,0-.34s.08-.16.12-.32,0-.18,0-.34l.07-.33.06-.33c0-.17.09-.16.12-.32l.06-.33c0-.17,0-.18,0-.34s.08-.16.12-.32l.06-.33L81,18c0-.17,0-.18,0-.34l.06-.33c0-.17.09-.16.12-.32l.06-.33.06-.33c0-.17,0-.18,0-.34s.09-.16.12-.32,0-.18,0-.34.08-.16.12-.32,0-.18,0-.34l.07-.33c0-.17.08-.16.11-.32s0-.18,0-.34l.07-.33.06-.33.06-.33.06-.33c0-.17.09-.16.12-.32s0-.18,0-.34l.05-.28c0-.16.09-.15.12-.32s0-.17,0-.34l.06-.33c0-.16.09-.15.12-.32l.06-.33.06-.33c0-.16,0-.17,0-.34s.09-.15.12-.32l.06-.33c0-.16,0-.17,0-.34s.09-.15.12-.32L83,7.47c0-.16.09-.15.12-.32s0-.17,0-.34l.06-.33c0-.16,0-.17,0-.34l.06-.33.06-.33.07-.33c0-.16.08-.15.11-.32l.07-.33c0-.16,0-.17,0-.34s.09-.15.12-.32l.06-.33c0-.16,0-.17,0-.34a.86.86,0,0,1,.17-.31.82.82,0,0,1,.22-.24c.07-.05.18,0,.3-.06a.78.78,0,0,1,.34,0l.33.06.33.06c.16,0,.17,0,.34,0l.33.07c.16,0,.17,0,.34,0s.15.09.32.12l.38.07c.17,0,.16.09.32.12s.18,0,.34,0,.16.09.32.12.18,0,.34,0l.33.06.33.06c.17,0,.18,0,.34,0s.21.1.38.13l.33.06.18.26a1.11,1.11,0,0,1,.17.32c0,.11,0,.23,0,.34s-.09.15-.12.32,0,.17,0,.34l-.06.33-.06.33c0,.16-.09.15-.12.32l-.06.33c0,.16,0,.17,0,.34L90,7.1,90,7.43c0,.16,0,.18,0,.34s-.14.14-.17.31l-.06.33-.06.33c0,.16,0,.17,0,.34s-.09.15-.12.32l-.06.33c0,.16,0,.17,0,.34s-.09.15-.12.32,0,.18,0,.34l0,.27-.06.34-.06.33-.07.33-.06.33-.06.33L88.9,13l-.07.33-.06.33-.06.33-.07.33c0,.16-.08.15-.11.32l-.07.33-.06.33c0,.16,0,.17,0,.34s-.08.15-.11.32,0,.17,0,.34-.09.15-.12.32l-.06.33c0,.16,0,.17,0,.34l-.06.33c0,.11,0,.28.16.31s.29,0,.36-.1,0-.16.12-.32l.18-.31a1.08,1.08,0,0,1,.16-.25c.08-.16.14-.15.27-.24s0-.16.12-.31,0-.17.12-.32l.17-.31c.09-.16.19-.08.27-.24s0-.16.12-.32l.17-.31a.77.77,0,0,0,.16-.25l.18-.31c.07-.1.13-.09.21-.24l.18-.31a2.11,2.11,0,0,0,.16-.26l.17-.3c.09-.16.13-.09.22-.25s0-.16.12-.32.14-.14.23-.3L92,12.1c.08-.16,0-.17.12-.32s.14-.14.21-.24.14-.15.23-.3,0-.17.12-.32.08-.16.16-.26l.17-.3a1.3,1.3,0,0,1,.17-.26.78.78,0,0,0,.22-.3c.09-.15.13-.09.22-.24s0-.23.06-.33a.86.86,0,0,0,.23-.3c.09-.15.13-.09.22-.24l.17-.31a2.11,2.11,0,0,1,.16-.26l.18-.31.17-.31c.08-.1.13-.08.22-.24s0-.16.12-.32.08-.15.17-.31l.16-.25.17-.31a1,1,0,0,1,.17-.25c.08-.16.14-.15.21-.25s.09-.15.18-.31A.9.9,0,0,1,96.51,5a.66.66,0,0,1,.26-.18.78.78,0,0,1,.34,0c.17,0,.18,0,.34,0s.16.08.32.11l.33.07.33.06c.17,0,.18,0,.34,0s.16.08.32.12.18,0,.34,0,.16.09.32.12.16.09.32.12l.33.06.33.06.33.07c.17,0,.18,0,.34,0s.16.08.32.11l.33.07c.17,0,.18,0,.34,0a1.07,1.07,0,0,1,.38.13c.1.08.12.25.15.37a1,1,0,0,1,.11.37,1.06,1.06,0,0,1-.13.37l-.18.31a1.25,1.25,0,0,0-.21.24c-.09.16,0,.23-.07.33s-.19.14-.27.24,0,.22-.13.37-.13.09-.21.24-.08.1-.17.26l-.17.31-.17.31a1.08,1.08,0,0,0-.16.25c-.09.15-.15.14-.22.24l-.17.31-.18.31c-.07.1,0,.17-.16.26l-.17.31c-.09.15-.13.08-.22.24a.52.52,0,0,1-.22.24c-.08.16,0,.22-.11.32s-.15.15-.23.3,0,.17-.12.32-.09.16-.16.25l-.18.31c-.07.1-.08.16-.16.26l-.17.31c-.14.14-.19.08-.27.23s0,.17-.18.31,0,.11-.1.26a1.2,1.2,0,0,0-.23.3c-.08.1-.13.09-.22.25s0,.16-.12.32a1.08,1.08,0,0,1-.16.25l-.17.31c-.14.14-.19.08-.27.23s0,.18-.07.33-.14.15-.27.24,0,.16-.12.31-.13.09-.21.25,0,.16-.12.32l-.18.31c-.08.15-.13.09-.27.23s0,.17-.11.32a1.52,1.52,0,0,1-.17.25c-.08.16-.14.15-.21.25s-.1.21-.18.31a.86.86,0,0,1-.23.3c-.07.1,0,.11-.16.25s0,.16-.12.32-.14.14-.21.24a1.44,1.44,0,0,0-.19.37l-.06.33a.88.88,0,0,0,0,.39l.05.35c0,.18,0,.17,0,.34s.09.14.11.31,0,.18,0,.35-.08.16-.06.33l.05.35a1.54,1.54,0,0,0,0,.3c0,.17,0,.22,0,.34s.07.18.1.36,0,.17,0,.34.09.13.11.31-.09.21-.06.33.08.18.1.36a.77.77,0,0,0,0,.34c0,.16,0,.18,0,.35s0,.12.06.3,0,.16,0,.34.08.18,0,.35,0,.16,0,.34l0,.35c0,.12.09.13.11.31s-.09.15-.06.33.08.18.11.3,0,.22,0,.4.09.13.06.29l0,.35c0,.18,0,.17,0,.35a1,1,0,0,0,.06.29c0,.18.08.19.1.36l-.06.33c0,.18.08.19.1.36s0,.12.06.3,0,.17-.07.33.08.19,0,.35,0,.17,0,.34.08.19.11.36,0,.12,0,.3a.65.65,0,0,0,0,.34l0,.35c0,.18,0,.17,0,.34s.08.13,0,.3.08.18.1.36a.65.65,0,0,0,0,.34c0,.17,0,.16,0,.34s0,.16,0,.34.09.13.11.31l0,.35c0,.17,0,.16-.06.33l.05.35c0,.17.08.13.11.3l0,.36a.78.78,0,0,1,0,.34c0,.17,0,.16,0,.34s0,.12.06.29.08.19.1.36-.09.16-.06.33.08.19.1.37a.53.53,0,0,0,0,.28c0,.18,0,.22,0,.34s.08.19,0,.35.08.19.1.36a.4.4,0,0,1,0,.29l0,.35c0,.18,0,.17,0,.34l0,.35a.5.5,0,0,1,0,.4.65.65,0,0,1-.24.35c-.08.1-.24.07-.37.1a.73.73,0,0,1-.35,0c-.16,0-.15-.09-.32-.12s-.17,0-.34,0-.15-.09-.32-.12-.17,0-.34,0l-.33-.06c-.16,0-.15-.09-.32-.12s-.18.08-.35.05-.15-.09-.32-.12l-.33-.06c-.16,0-.15-.09-.32-.12s-.17,0-.34,0-.17,0-.28,0L91,43.66c-.17,0-.15-.14-.31-.17s-.18,0-.34,0l-.33-.06-.33-.07a.74.74,0,0,1-.31-.17.54.54,0,0,1-.23-.27.48.48,0,0,1-.12-.31l0-.35c0-.16-.08-.19-.06-.29s0-.23,0-.4,0-.12-.06-.3l-.05-.35c0-.17,0-.16.06-.33s-.13-.19-.15-.37l.06-.33,0-.35c0-.18,0-.12,0-.3s0-.16,0-.34l0-.35c0-.17-.08-.18-.11-.36a.77.77,0,0,0,0-.34c0-.18,0-.16,0-.34l-.05-.35.06-.33c0-.12-.08-.13,0-.3s-.08-.18-.11-.36a.78.78,0,0,1,0-.34l0-.35c0-.18,0-.17,0-.34a1.54,1.54,0,0,0,0-.3.65.65,0,0,1,0-.34c0-.17-.08-.18-.1-.36s0-.16,0-.34a.77.77,0,0,0,0-.34c0-.17,0-.16,0-.34s-.07-.19-.11-.31,0-.22,0-.34l0-.35a.77.77,0,0,0,0-.34.78.78,0,0,1,0-.34c0-.17-.14-.2-.16-.37s.09-.16.06-.33S88,30.6,88,30.42s0-.16,0-.34,0-.16,0-.34l0-.35c0-.18,0-.16,0-.34l0-.35c0-.18,0-.12-.06-.3s0-.22,0-.39-.14-.14-.24-.22-.29,0-.31.11-.09.16-.17.31,0,.17-.11.27-.14.14-.22.24l-.17.31c-.08.1-.13.09-.22.24a1,1,0,0,1-.16.26c-.09.15,0,.16-.17.31s0,.16-.11.26-.14.14-.22.24a.86.86,0,0,0-.17.31c-.07.05,0,.22,0,.28s-.1.21-.12.32-.09.15-.11.26l-.06.33c0,.17,0,.18,0,.34s-.08.16-.12.32,0,.18,0,.34S85,33,85,33.16s0,.18,0,.34l-.06.33c0,.17-.09.16-.12.32s0,.18,0,.34-.08.16-.1.27,0,.17,0,.34l-.07.33-.06.33-.06.33c0,.16-.09.15-.12.32l-.06.33c0,.16,0,.17,0,.34l-.06.33-.07.33-.06.33c0,.16-.08.15-.12.32l-.06.33c0,.16.08.18,0,.35s-.09.15-.11.26-.09.16-.12.32.08.19,0,.35-.09.16-.12.32-.08.16-.11.32l-.07.33-.06.33c0,.11,0,.23-.06.33a.79.79,0,0,1-.27.18c-.07.1-.2.19-.26.18a.78.78,0,0,1-.34,0c-.22,0-.23,0-.39,0s-.16-.08-.32-.11l-.33-.07c-.17,0-.16-.08-.32-.11l-.33-.07-.33-.06c-.17,0-.19.08-.35.05s-.16-.09-.38-.13l-.33-.06c-.16,0-.17,0-.34,0s-.15-.09-.32-.12-.15-.09-.32-.12l-.33-.06c-.16,0-.17,0-.34,0L77.46,41Z"/><path class="cls-1" d="M28.35,60.75c0,.11-.05.22-.05.34v1c0,.12.05.23.05.34s.06.22.06.34-.11.22-.11.33.05.23.05.34.06.22.06.33-.11.23-.11.34v1c0,.11.05.22.05.33s.06.23.06.34-.06.22-.06.34v.67c0,.11-.05.22-.05.33v.34c0,.11.05.22.05.34v.33c0,.11-.05.23-.05.34v.33c0,.12.05.23.05.34v.34c0,.11.06.22.06.33s-.06.23-.06.34v2.35c0,.11-.05.22-.05.34v.67c0,.11.05.22.05.33s-.05.23-.05.34v.34c0,.11.05.22.05.33s-.05.23-.05.34v.67c0,.11.11.22.11.34s-.06.22-.06.33-.05.23-.05.34.05.22.05.33v.4c0,.11-.05.22-.05.33s.11.23.11.34-.11.22-.11.33V79c0,.11.05.22.05.34s.06.22.06.33.05.23.05.34-.05.22,0,.33.06.23.06.34a.89.89,0,0,0,.06.39c0,.11.11.17.16.28s.06.23.06.34a2.84,2.84,0,0,0,.39.56.58.58,0,0,0,.23.28,1.39,1.39,0,0,0,.16.28,1.22,1.22,0,0,0,.34.22c.06.06.22,0,.34.06s.16.11.28.11.28,0,.39,0h.33c.12,0,.23.11.34.11s.22-.05.34-.05a2,2,0,0,0,.28-.17.86.86,0,0,0,.33-.11c.11,0,.17-.12.28-.17l.23-.23c.11,0,.16-.16.22-.22s.22-.17.28-.28.06-.22.11-.28.11-.22.17-.34a1.81,1.81,0,0,0,.06-.28c.05-.11,0-.22.05-.33s.11-.23.11-.34,0-.22.06-.33-.06-.23-.06-.34.06-.22.06-.34v-.33c0-.11.11-.23.11-.34s-.11-.17-.11-.33.06-.17.06-.34v-1c0-.17,0-.17,0-.33s0-.17,0-.28v-.34c0-.17-.06-.17-.06-.34v-.33c0-.17.11-.17.11-.34s-.11-.17-.11-.33v-.34c0-.17.11-.17.11-.34V73.8c0-.11-.11-.23-.17-.34a.51.51,0,0,0-.16-.28c-.06-.05-.12-.17-.23-.17a.76.76,0,0,0-.33-.05c-.17,0-.17-.06-.34-.06s-.17.06-.34.06H32c-.17,0-.17.05-.33.05a.72.72,0,0,1-.34-.11.4.4,0,0,1-.22-.22.43.43,0,0,1-.23-.23.86.86,0,0,1-.11-.33c0-.17.11-.17.11-.34s-.11-.17-.11-.33.06-.17.06-.34v-.34c0-.16.05-.16.05-.33s-.11-.17-.11-.34v-.39c0-.17.06-.17.06-.34s-.06-.16-.06-.33v-.67c0-.17.06-.17.06-.34v-.67c.05-.11.16-.17.22-.28a1.37,1.37,0,0,1,.28-.17.72.72,0,0,1,.34-.11H32c.17,0,.17,0,.34,0s.17,0,.33,0,.17,0,.34,0h1c.17,0,.17.06.33.06h1.07c.17,0,.17-.11.33-.11s.17,0,.34,0,.17.06.34.06.16-.06.33-.06.17.06.34.06h1c.16,0,.16-.06.33-.06s.17,0,.39,0,.17,0,.34,0h.34c.16,0,.16.06.33.06s.17-.06.34-.06h.33a.58.58,0,0,1,.23.28,2,2,0,0,1,.17.28.47.47,0,0,1,.05.28v.68c0,.16.06.16.06.33V69c0,.17.05.17.05.33s-.11.17-.11.34v.34c0,.16.11.16.11.33s-.05.17-.05.34-.06.17-.06.33v.34c0,.17.06.17.06.34v.33c0,.17-.06.17-.06.34s.11.17.11.33-.11.17-.11.34v.34c0,.16.11.16.11.33s-.05.17-.05.34-.06.11-.06.28.06.17.06.33.05.17.05.34-.05.17-.05.34v1c0,.17-.06.17-.06.34v.34c0,.16.06.16.06.33s.05.17.05.34v.33c0,.17-.11.17-.11.34s.06.17.06.34-.06.16-.06.33v.34c0,.17.11.17.11.33v.68c0,.16-.11.16-.11.33v.34c0,.17.11.17.11.33s-.05.17-.05.34v1.68c0,.17-.06.17-.06.34v.61c0,.17.06.17.06.34s-.06.17-.06.33.06.17.06.34v.34c0,.16.05.16.05.33s-.05.17-.05.34v.33c0,.17-.06.17-.06.34s.06.17.06.34v.33c0,.17.05.17.05.34v.33c0,.17-.11.17-.11.34a.83.83,0,0,1-.05.34c-.06,0-.06.22-.12.28l-.33.16c-.06,0-.17.12-.28.12s-.23-.06-.45-.06-.22.06-.28,0-.17-.17-.22-.22-.17-.06-.28-.17a3.11,3.11,0,0,1-.28-.23,1.06,1.06,0,0,1-.28-.16c-.12-.12-.06-.17-.23-.28s-.11-.12-.22-.17a1,1,0,0,1-.28-.23c-.11-.11-.17,0-.28-.16s-.23-.23-.34-.23a.53.53,0,0,0-.39,0c-.11,0-.22.11-.34.17a1.27,1.27,0,0,0-.28.22c-.11.06-.11.17-.22.23s-.22,0-.34.11-.16.17-.28.22-.22.06-.33.12-.17,0-.28.11-.23,0-.34.11-.17.17-.28.17a.76.76,0,0,1-.33,0l-.34.17h-.34c-.11.06-.22.06-.33.11s-.23,0-.34,0-.22,0-.33.11-.23.06-.34.06h-.67c-.11,0-.23-.06-.34-.06h-.33c-.12-.06-.23-.06-.34-.11s-.22,0-.34,0a.76.76,0,0,0-.33,0,.76.76,0,0,0-.34-.11c-.11,0-.22-.06-.33-.06s-.23,0-.34-.06a.8.8,0,0,1-.34-.11c-.11,0-.22,0-.33,0s-.17-.17-.28-.22-.28,0-.34-.06a.72.72,0,0,1-.33-.11c-.12-.06-.17-.17-.28-.17L26,88.41a.66.66,0,0,1-.22-.22L25.44,88a1.84,1.84,0,0,1-.22-.17,1,1,0,0,0-.34-.16c-.06-.06-.17-.12-.28-.23a.66.66,0,0,1-.22-.22c-.12-.06-.12-.23-.17-.28a1.14,1.14,0,0,0-.28-.23,1.37,1.37,0,0,0-.17-.28.8.8,0,0,1-.22-.28,2.61,2.61,0,0,1-.17-.28c-.11-.11-.23-.11-.28-.22s-.11-.17-.17-.28l-.17-.34c-.05-.11-.11-.16-.17-.28a.86.86,0,0,1-.11-.33c0-.06,0-.23-.11-.28a.78.78,0,0,1-.06-.34l-.16-.33c0-.12-.12-.23-.12-.34a.78.78,0,0,1-.05-.34c-.06,0-.06-.16-.11-.28a.65.65,0,0,0-.06-.33v-.39a2.57,2.57,0,0,1-.06-.28c0-.12,0-.23,0-.34a.66.66,0,0,1-.06-.34.72.72,0,0,0-.11-.33c0-.11.11-.23.11-.34a.76.76,0,0,1-.05-.33v-.34c0-.11-.06-.22-.06-.34v-.39c0-.11-.06-.22-.06-.33v-.68c0-.11.06-.22.06-.33v-.67c0-.12-.06-.23-.06-.34v-.34c0-.11.06-.22.06-.33v-.67c0-.12-.06-.23-.06-.34s.06-.22.06-.34-.06-.22-.06-.33.06-.23.06-.34v-1c0-.11-.06-.28-.06-.39s.12-.22.12-.33-.12-.23-.12-.34.06-.22.06-.34.06-.22.06-.33-.06-.23-.06-.34V70c0-.11-.06-.22-.06-.34V69c0-.11.06-.22.06-.33s.06-.23.06-.34-.06-.22-.06-.34.06-.22.06-.33-.06-.23-.06-.34v-.67c0-.11.06-.22.06-.34s-.12-.22-.12-.33.06-.28.06-.39v-1c0-.11-.06-.23-.06-.34v-.33c0-.12.06-.23.06-.34s-.06-.22-.06-.34v-.67c0-.11.06-.22.06-.33v-.34c0-.11.06-.22.06-.34s-.06-.22-.06-.33V59.13c0-.12.06-.17.06-.28a1.24,1.24,0,0,0,.05-.4v-.33c.06-.11,0-.23,0-.34s0-.22,0-.33a.8.8,0,0,0,.11-.34c0-.11.06-.22.06-.34a.65.65,0,0,1,.06-.33c0-.11.11-.17.11-.28s.05-.23.11-.34,0-.22,0-.33a.8.8,0,0,0,.11-.34c.06-.11.17-.17.23-.28s0-.22,0-.34a1.37,1.37,0,0,1,.17-.28c.06-.11.17-.22.17-.28s.05-.28.11-.33a1.43,1.43,0,0,1,.22-.28c.06-.11.12-.17.17-.28l.17-.34a1.14,1.14,0,0,0,.17-.28l.33-.17a2.61,2.61,0,0,0,.17-.28c.11,0,.17-.16.28-.22a.78.78,0,0,1,.23-.22c.11-.06.11-.23.22-.28a1,1,0,0,1,.28-.17c.11-.11.22-.11.34-.17a2.53,2.53,0,0,1,.22-.28L26,50.5a.78.78,0,0,1,.34,0,.74.74,0,0,1,.33-.12,1.39,1.39,0,0,1,.28-.16l.34-.17c.05,0,.17-.11.28-.11s.22,0,.33-.06a.7.7,0,0,1,.34-.06c.11-.05.22-.16.34-.16s.22,0,.33,0,.23-.06.34-.06a.65.65,0,0,1,.33-.06h.34a.8.8,0,0,0,.34-.11c.11,0,.22.06.33.06a.76.76,0,0,1,.34-.11c.11,0,.22.05.33.05h.34a.7.7,0,0,1,.34.06h.33a.8.8,0,0,1,.34.05h.67c.11.06.22.06.34.12H34c.11,0,.23,0,.34.11s.17.11.28.11.22.06.33.11a.85.85,0,0,1,.34.11c.11.06.22.06.34.12s.16,0,.28.11.22,0,.33.11.23.06.34.11l.22.23A.94.94,0,0,1,37,51c.11.06.23.06.34.17s.17.11.22.22a1.14,1.14,0,0,1,.28.17.63.63,0,0,1,.23.28,1.27,1.27,0,0,1,.28.22.78.78,0,0,0,.22.23.91.91,0,0,0,.22.22l.17.34a1.14,1.14,0,0,1,.17.28c.11.05.11.17.17.28s.22.17.28.28,0,.17.11.28.06.22.11.33.11.17.17.28a.8.8,0,0,1,.11.34c.06.11.17.17.17.28s0,.22.06.34.11.22.11.33,0,.23.11.34.06.17.11.28.06.22.06.33.05.23.05.34,0,.22.06.34v.33a.9.9,0,0,0,.11.34v.33c0,.12-.05.23-.05.4s.05.16.05.28,0,.28,0,.39.06.22.06.33,0,.23,0,.34v.34c0,.11-.06.16-.11.28a.63.63,0,0,1-.23.28.91.91,0,0,1-.22.22l-.34.11c-.17.06-.17,0-.33.06s-.17.11-.34.17-.17,0-.34.05a1,1,0,0,1-.28.11c-.16.06-.16.12-.33.17s-.17,0-.34,0l-.33.11-.34.12-.28.11c-.17,0-.17.11-.34.17s-.16,0-.28.11-.16,0-.33,0-.17,0-.34.06-.17.17-.33.17a.7.7,0,0,1-.34,0,.66.66,0,0,1-.34.06c-.16,0-.22-.11-.33-.17s-.23-.17-.28-.28a.51.51,0,0,1-.17-.39V61.09c0-.17.11-.17.11-.34s0-.17,0-.34V59.35c0-.11-.12-.22-.12-.34s.06-.22,0-.33a.76.76,0,0,0-.11-.34c0-.11-.05-.22-.05-.33s0-.23-.06-.34l-.17-.34c-.05-.11-.05-.22-.11-.33s-.11-.17-.17-.28a.56.56,0,0,1-.22-.28c-.11-.06-.17-.17-.28-.23s-.23-.11-.28-.16l-.34-.17c-.11-.06-.22,0-.33,0a.8.8,0,0,0-.34-.11c-.11,0-.22-.06-.34-.06s-.22.06-.33.06a1,1,0,0,1-.39,0c-.12,0-.17.16-.28.22a.66.66,0,0,0-.34.06l-.34.16c0,.06-.16.12-.28.23a1.15,1.15,0,0,0-.16.28c-.06.11-.17.17-.23.28l-.17.33v.34l-.16.34v.33l-.17.34c0,.11.05.22.05.33s-.11.23-.11.34-.05.22-.05.34.11.22.11.33-.11.23-.11.39S28.35,60.64,28.35,60.75Z"/><path class="cls-1" d="M53.93,89.53c-.12,0-.23.06-.34.06s-.22,0-.34-.06-.22.06-.33,0-.22,0-.34,0-.22,0-.33-.06a.78.78,0,0,1-.34,0h-.34c-.11-.06-.22-.06-.33-.12a.93.93,0,0,1-.34,0,1.19,1.19,0,0,1-.28-.11c-.11-.06-.22-.06-.33-.12s-.17-.11-.28-.16a.66.66,0,0,1-.34-.06l-.34-.17c-.11,0-.16-.17-.28-.22s-.22-.06-.28-.11l-.33-.17c-.06-.06-.11-.17-.23-.23s-.22-.11-.28-.16-.16-.23-.22-.28a1.2,1.2,0,0,1-.34-.17,1.39,1.39,0,0,1-.16-.28c-.12-.06-.17-.17-.23-.23a.8.8,0,0,1-.22-.28c-.06-.11-.17-.11-.28-.22a3.38,3.38,0,0,1-.11-.34.79.79,0,0,1-.17-.28L46,85.39c0-.11,0-.28-.11-.34l-.17-.33c0-.11-.11-.17-.11-.28a1.14,1.14,0,0,0-.22-.28.9.9,0,0,0-.11-.34c-.06-.11-.06-.22-.12-.33a3.38,3.38,0,0,0-.11-.34,1,1,0,0,0-.05-.34.77.77,0,0,0-.06-.33,1,1,0,0,0-.11-.28.68.68,0,0,0-.06-.34v-.33c0-.12-.05-.23-.05-.34v-.34a.74.74,0,0,1-.12-.33c0-.11.06-.23.06-.34s-.06-.22-.06-.33,0-.23,0-.34,0-.22,0-.39V77.83c0-.17,0-.17,0-.34v-.33c0-.17,0-.17,0-.34s0-.17,0-.33v-.68c0-.16-.06-.16-.06-.33s.06-.17.06-.34v-.33c0-.17,0-.17,0-.34v-.34c0-.16,0-.16,0-.33s0-.17,0-.34v-.33c0-.17,0-.17,0-.34v-.34c0-.16,0-.16,0-.33s0-.17,0-.34v-.67c0-.17,0-.17,0-.34v-.33c0-.17,0-.17,0-.34V68.76c0-.17,0-.17,0-.34v-.33c0-.17,0-.17,0-.34s0-.17,0-.34,0-.16,0-.33,0-.17,0-.34v-.61c0-.17,0-.17,0-.34v-1c0-.17,0-.17,0-.33v-1c0-.17-.11-.17-.11-.34s.06-.17.06-.33V61.42c0-.17,0-.17,0-.33s0-.17,0-.34,0-.17,0-.34v-.33c0-.17,0-.17,0-.34v-.67c0-.17,0-.17,0-.34s0-.16,0-.33,0-.17,0-.34,0-.17,0-.33,0-.17,0-.34,0-.17,0-.34v-.33c0-.17,0-.17,0-.34s0-.17,0-.28v-1c0-.16,0-.16,0-.33v-.34c0-.17,0-.17,0-.33v-.34c0-.17,0-.17,0-.34v-.33c0-.17,0-.17,0-.34v-.33c0-.17,0-.17,0-.34s0-.17,0-.34,0-.16,0-.33,0-.17,0-.34v-.33c0-.12,0-.23,0-.34s.17-.11.28-.22a1,1,0,0,1,.23-.23c.05,0,.17,0,.28,0s.22-.06.39-.06.17.06.34.06.16,0,.33,0,.17-.11.34-.11.17.11.33.11.17,0,.34,0,.17,0,.34,0,.16-.11.39-.11.17.11.33.11.17-.11.34-.11h.34c.16,0,.16.06.33.06h1a.8.8,0,0,1,.34.11c.11,0,.22,0,.28.17a1,1,0,0,1,.16.28.39.39,0,0,1,.12.28c0,.16-.06.16-.06.33s.06.17.06.34-.06.17-.06.33.06.17.06.34-.06.17-.06.34v.33c0,.17.06.17.06.34s-.06.17-.06.33.06.17.06.34-.06.17-.06.34.06.16.06.33-.06.17-.06.34.06.17.06.33-.06.17-.06.34.06.17.06.34-.06.16-.06.33.06.17.06.34v.33c0,.17-.06.17-.06.34s.06.17.06.34-.06.16-.06.33v2.35c0,.17.06.17.06.34s-.06.17-.06.34.06.16.06.33v.34c0,.17-.06.17-.06.33v.34c0,.17.06.17.06.34s-.06.16-.06.33v.34c0,.17.06.17.06.33v.68c0,.16-.06.16-.06.33v.34c0,.17.06.17.06.33v.34c0,.17-.06.17-.06.34v.67c0,.17.06.17.06.33s-.06.17-.06.34.06.17.06.34-.12.16-.12.33.12.17.12.34-.06.17-.06.33v.34c0,.17.06.17.06.34v.67c0,.17-.06.17-.06.33s.06.17.06.34-.06.17-.06.34.06.16.06.33-.06.17-.06.34.06.17.06.33-.06.17-.06.34.06.17.06.34v.33c0,.17-.06.17-.06.34s.06.17.06.33-.06.17-.06.34v.34c0,.16.06.16.06.33s-.06.17-.06.34.06.17.06.33-.06.17-.06.34.06.17.06.34-.06.16-.06.33v.34c0,.17.06.17.06.33s-.06.17-.06.34v1c0,.17.06.17.06.33s-.06.23-.06.34v.34a.86.86,0,0,0,.11.33.68.68,0,0,0,.06.34c0,.11-.06.22-.06.33s.11.23.11.34a.7.7,0,0,0,.06.34.89.89,0,0,0,.06.39c.05.11.05.22.11.28L52,82c.05.12.16.17.22.23a1.14,1.14,0,0,1,.23.28c.11,0,.11.22.22.28s.22.11.33.17a1.39,1.39,0,0,0,.28.16.7.7,0,0,0,.34.06c.11,0,.22.06.34.06s.22.05.33.05a.82.82,0,0,0,.4-.11H55c.11-.06.22,0,.34-.06s.17-.11.28-.16l.33-.17c.06-.11.17-.11.28-.23s.11-.16.23-.28a1.26,1.26,0,0,0,.17-.28c.05-.11.05-.22.11-.33s.11-.17.16-.28S57,81.13,57,81s-.06-.28,0-.39.05-.22.05-.34,0-.22,0-.33a.68.68,0,0,0,.06-.34c0-.11.05-.22.05-.33V79c0-.11.06-.22.06-.34s-.06-.16-.06-.33-.05-.17-.05-.34v-.33c0-.17.05-.17.05-.34V75.93c0-.17-.05-.17-.05-.34s.11-.17.11-.34-.06-.16-.06-.33v-.34c0-.17.06-.17.06-.33s-.06-.17-.06-.34v-.34c0-.16.06-.16.06-.33V72.9c0-.17-.06-.17-.06-.33s.06-.17.06-.34v-.34c0-.16-.06-.16-.06-.33v-.67c0-.17.06-.17.06-.34v-.67c0-.17-.06-.17-.06-.34s.06-.17.06-.33-.06-.17-.06-.34V66.52c0-.17.06-.17.06-.34V64.84c0-.17-.06-.17-.06-.34s.06-.17.06-.33-.11-.17-.11-.34.05-.17.05-.34.06-.16.06-.33-.06-.17-.06-.34.06-.17.06-.33v-.34c0-.17-.06-.17-.06-.34s.06-.16.06-.33v-.34c0-.17-.06-.17-.06-.33s.06-.17.06-.34v-.34c0-.16-.06-.16-.06-.33V58.45c0-.16.06-.16.06-.33s-.06-.17-.06-.34.06-.17.06-.33v-1c0-.17-.06-.17-.06-.34s.06-.17.06-.33v-1c0-.17-.06-.17-.06-.34s.06-.17.06-.33v-.68c0-.16-.06-.16-.06-.33s.06-.17.06-.34-.06-.17-.06-.33v-.34c0-.17.06-.17.06-.34s-.06-.16-.06-.33.06-.17.06-.34v-.33a1.81,1.81,0,0,1,.06-.28.79.79,0,0,1,.17-.28c0-.12.16-.17.28-.23a.42.42,0,0,1,.27-.11c.23,0,.23.06.4.06s.17,0,.33,0,.17-.11.34-.11.17.06.34.06h.33c.17,0,.17-.06.34-.06s.16.06.33.06h.73c.17,0,.17-.06.34-.06s.17.11.33.11.17,0,.34,0h1c.11,0,.28,0,.33,0s.17.17.28.23.11.16.17.22a.72.72,0,0,1,.11.34v.33c0,.17,0,.17,0,.34v.67c0,.17,0,.17,0,.34v1.34c0,.17,0,.17,0,.34s0,.16,0,.33v.67c0,.17,0,.17,0,.34v.34c0,.16,0,.16,0,.33v.67c0,.17-.11.17-.11.34s.06.17.06.34,0,.11,0,.28,0,.16,0,.33,0,.17,0,.34v1c0,.16,0,.16,0,.33s0,.17,0,.34v.33c0,.17,0,.17,0,.34v1c0,.17,0,.17,0,.33v.34c0,.17,0,.17,0,.34v.33c0,.17,0,.17,0,.34v.67c0,.17,0,.17,0,.34v.33c0,.17,0,.17,0,.34s0,.17,0,.33,0,.17,0,.34v1.34c0,.17,0,.17,0,.34s0,.17,0,.34v.33c0,.11,0,.11,0,.28s0,.17,0,.34v.33c0,.17,0,.17,0,.34v1.34c0,.17,0,.17,0,.34s0,.17,0,.34,0,.16,0,.33v.34c0,.17,0,.17,0,.33v.34c0,.17,0,.17,0,.34v.67c0,.17,0,.17,0,.33s0,.17,0,.34,0,.17,0,.34v.67c0,.17-.06.17-.06.33s.11.17.11.34,0,.17,0,.34,0,.16,0,.33v.34c0,.17,0,.17,0,.33s0,.17,0,.34,0,.17,0,.34,0,.16,0,.28v.33c0,.11,0,.28,0,.34s0,.28,0,.39v.34a.86.86,0,0,0-.11.33v.34c0,.11.06.22,0,.33v.34a.66.66,0,0,0-.06.34c0,.11,0,.22,0,.33s-.11.17-.17.28v.34a1,1,0,0,0-.05.39c-.06.11-.12.17-.12.28s0,.22-.11.34a1.37,1.37,0,0,1-.17.28c0,.11,0,.28,0,.33a.78.78,0,0,0-.12.34l-.16.33a1,1,0,0,0-.17.28c-.06.06-.06.23-.11.28l-.17.34a1.37,1.37,0,0,0-.17.28c-.06.11-.11.17-.17.28a.52.52,0,0,1-.28.22,1,1,0,0,1-.16.28,1.09,1.09,0,0,1-.28.23.78.78,0,0,1-.23.22c-.11.11-.17.23-.22.28a.84.84,0,0,0-.28.23c-.11,0-.17.16-.23.22s-.28.06-.33.11a1,1,0,0,0-.28.17c-.11.06-.17.17-.28.22s-.23.06-.34.12-.17.16-.28.16-.22.06-.33.12-.17.11-.29.16a.74.74,0,0,1-.33.12c-.11,0-.22,0-.34.11a.76.76,0,0,1-.33,0c-.06.06-.23,0-.34.06s-.17.06-.28.06a.85.85,0,0,1-.34.11c-.11,0-.22,0-.33,0h-.34c-.11,0-.22.06-.33.06H55c-.11,0-.22.06-.33.06s-.28-.06-.4-.06S54,89.53,53.93,89.53Z"/><path class="cls-1" d="M68.46,89a.49.49,0,0,1-.23-.22.63.63,0,0,1-.28-.23c0-.11,0-.22,0-.33s0-.17,0-.34,0-.17,0-.34,0-.16,0-.33V86.9c0-.17.06-.17.06-.33v-.34c0-.17-.06-.17-.06-.34v-1c0-.17.06-.17.06-.34s-.11-.17-.11-.34,0-.16,0-.33.06-.17.06-.34v-.33C68,83,68,83,68,82.87v-.34c0-.16,0-.16,0-.33s0-.17,0-.34V80.18c0-.17,0-.17,0-.33v-.34c0-.17,0-.17,0-.34S68,79,68,78.84V78.5c0-.17-.11-.17-.11-.33v-.34c0-.17,0-.17,0-.28V76.21c0-.17,0-.17,0-.34v-.34c0-.16,0-.16,0-.33v-.34c0-.17,0-.17,0-.33s.11-.17.11-.34-.11-.17-.11-.34,0-.16,0-.33,0-.17,0-.34,0-.17,0-.33v-.34c0-.17.06-.17.06-.34V71.5c0-.17-.06-.17-.06-.33s0-.17,0-.34,0-.17,0-.34.06-.16.06-.33-.11-.17-.11-.34v-.33c0-.17.11-.17.11-.34s-.11-.17-.11-.34v-.67c0-.17,0-.17,0-.33s.06-.17.06-.34-.11-.17-.11-.34,0-.16,0-.33,0-.17,0-.34.11-.17.11-.33S68,66,68,65.79s0-.17,0-.34,0-.16,0-.33v-.34c0-.17,0-.17,0-.33s.11-.17.11-.34-.06-.17-.06-.34,0-.16,0-.33v-1c0-.17.11-.17.11-.34s-.11-.16-.11-.33,0-.17,0-.34,0-.17,0-.33v-.34c0-.17,0-.17,0-.34v-.67c0-.17,0-.17,0-.33s0-.17,0-.28,0-.17,0-.34,0-.17,0-.34.06-.16.06-.33v-.34c0-.17-.11-.17-.11-.33v-.68c0-.16.11-.16.11-.33S68,56.27,68,56.1v-1c0-.16,0-.16,0-.33v-.34c0-.17,0-.17,0-.33v-.34c0-.17,0-.17,0-.34s0-.16,0-.33v-1c0-.17,0-.17,0-.34s.11-.16.11-.33-.06-.17-.06-.34,0-.17,0-.33a.72.72,0,0,1,.11-.34c.06-.11.11-.17.17-.28l.28-.17c.11,0,.22,0,.33,0h.34c.17,0,.17,0,.34,0s.16-.06.33-.06h.73c.17,0,.17.06.34.06h.33c.17,0,.17-.06.34-.06h.33c.17,0,.17.06.34.06s.17,0,.34,0,.16-.11.33-.11.17.11.39.11.17,0,.34,0H74a.76.76,0,0,1,.33,0c.11,0,.17.11.28.17s.17.17.23.28v.67c0,.17-.06.17-.06.34v.67c0,.17.06.17.06.34s0,.16,0,.33,0,.17,0,.34-.06.17-.06.33.11.17.11.34v.34c0,.16,0,.16,0,.33v.67c0,.17-.06.17-.06.34v1c0,.22.11.22.11.39v1c0,.17,0,.17,0,.33s0,.17,0,.34-.11.17-.11.34v.67c0,.17.06.17.06.33v.34c0,.17-.06.17-.06.34s.06.16.06.33-.06.17-.06.34.11.17.11.33,0,.17,0,.34,0,.17,0,.34-.11.16-.11.33v.34c0,.17.06.17.06.33v.68c0,.16-.06.16-.06.33s.11.17.11.34,0,.17,0,.33v.34c0,.17-.06.17-.06.34v1c0,.17.06.17.06.34v1.34c0,.17-.06.17-.06.34s.11.17.11.34-.11.16-.11.33v.34c0,.17.06.17.06.33v.34c0,.17-.06.17-.06.34s.11.16.11.33,0,.17,0,.34v1.06c0,.17-.06.17-.06.34V73c0,.17.06.17.06.34V74c0,.17,0,.17,0,.34s0,.17,0,.33-.06.17-.06.34v.34c0,.16.06.16.06.33s-.06.17-.06.34v.33c0,.17.06.17.06.34v1c0,.17,0,.17,0,.33s-.11.17-.11.34.11.17.11.34,0,.16,0,.33v.34c0,.17,0,.17,0,.33s0,.17,0,.34v.34c0,.16-.06.16-.06.33s.11.17.11.34,0,.17,0,.33-.06.17-.06.34.11.22.11.34.06.22.17.28.17.11.28.11.22.17.34.17.16-.06.33-.06.17-.06.28-.06.17.06.34.06.17.06.34.06.16-.12.33-.12.17.06.34.06.16.06.33.06.17-.06.28-.06.17.06.34.06.17-.06.34-.06h.33c.17,0,.17-.06.34-.06s.16.06.33.06.11.06.28.06h1c.11,0,.22-.06.34-.06a.62.62,0,0,1,.22.28,1.37,1.37,0,0,1,.17.28c0,.06.17.17.17.28s-.12.17-.12.34v.33c0,.17.12.17.12.34s-.06.22-.06.39v.67c0,.17.06.17.06.34S82,86,82,86.17v.68c0,.22-.06.22-.06.39v.67c0,.17.06.17.06.34a.65.65,0,0,1-.06.33.49.49,0,0,1-.16.28l-.34.17c-.06,0-.17.11-.28.11h-.34c-.16,0-.16,0-.33,0H79.15c-.16,0-.16-.06-.33-.06s-.17.06-.34.06h-.67c-.17,0-.17,0-.34,0h-.33c-.17,0-.17,0-.34,0h-.33c-.17,0-.17,0-.34,0s-.17,0-.34,0h-.33c-.17,0-.17,0-.34,0S75,89,74.79,89s-.17.11-.34.11-.17-.11-.34-.11-.16.06-.33.06h-.67c-.17,0-.17-.06-.34-.06s-.17.06-.34.06H71.15c-.17,0-.17-.06-.34-.06s-.17.06-.34.06H69.8c-.17,0-.17-.06-.33-.06s-.17.06-.34.06h-.34A.65.65,0,0,1,68.46,89Z"/></g></g></svg>