<svg xmlns="http://www.w3.org/2000/svg" viewBox="0 0 27.75 36.51"><defs><style>.cls-1{fill:#231f20;}</style></defs><g id="Layer_2" data-name="Layer 2"><g id="Layer_1-2" data-name="Layer 1"><path class="cls-1" d="M.84.06h1C2,.06,2.07,0,2.18,0s.23.11.34.11.22,0,.34,0h.67c.11,0,.22-.06.33-.06h.68c.11,0,.22.06.33.06s.23.05.34.05h.33c.12,0,.23,0,.34,0h1a2.32,2.32,0,0,1,.34.05h.67c.11,0,.22,0,.34,0S8.4,0,8.51,0s.23.06.34.06h.33C9.3.06,9.41,0,9.52,0s.22.06.34.06h.33c.11,0,.23.05.34.05h.33c.12,0,.23,0,.34,0h.67c.11,0,.23-.06.34-.06s.22.11.33.11.23,0,.34,0S13.1,0,13.22,0s.22.06.33.06h.34c.11,0,.22-.06.33-.06h.34c.11,0,.22.06.34.06a.72.72,0,0,1,.33.11c.06.11.17.22.17.33s-.06.17-.06.34v.34c0,.11-.05.11-.05.28v.33c0,.17.11.17.11.34s-.06.17-.06.33.06.12.06.28v.34c0,.17-.06.17-.06.34s-.05.16-.05.33.11.17.11.34-.06.11-.06.28V4.7a.57.57,0,0,1-.11.34.58.58,0,0,1-.33.17c-.17,0-.17-.06-.34-.06s-.17-.05-.28-.05-.17.11-.34.11h-.33c-.17,0-.17-.11-.34-.11s-.17.11-.28.11h-.33c-.17,0-.17-.11-.34-.11H11c-.17,0-.17.05-.33.05a.85.85,0,0,0-.34.11.7.7,0,0,0-.06.34c0,.17-.05.17-.05.34v.33c0,.17-.06.17-.06.34s.06.17.06.33v.34c0,.17-.06.17-.06.34s.06.16.06.33v.34c0,.17-.06.17-.06.33s.06.17.06.34-.06.17-.06.34.11.16.11.33-.05.17-.05.34-.06.17-.06.39.11.17.11.34-.05.16-.05.33v.34c0,.17-.06.17-.06.33s.06.17.06.34-.06.17-.06.34v.33c0,.17.06.17.06.34v.33c0,.17.05.17.05.34v.34c0,.16-.05.16-.05.33s.05.17.05.34-.05.17-.05.33-.06.17-.06.34.06.17.06.34v.33c0,.17-.06.17-.06.34v.67c0,.17.06.17.06.34v.33c0,.17.05.17.05.34v.33c0,.17-.11.17-.11.34s.11.17.11.34-.05.16-.05.33-.06.17-.06.34.11.17.11.33-.05.17-.05.34.05.17.05.34-.05.16-.05.39.05.11.05.33v.34c0,.17-.11.17-.11.34s.06.16.06.33v.34c0,.17.05.17.05.33s-.05.17-.05.34-.06.17-.06.34.06.16.06.33v.34c0,.17-.06.17-.06.33v1c0,.17.06.17.06.34v1c0,.16.05.16.05.33s-.05.17-.05.34v.33c0,.17.05.17.05.34s-.11.17-.11.34.06.16.06.33v.67c0,.17-.06.17-.06.34s.11.17.11.34v.33c0,.17-.11.17-.11.34s.06.17.06.39-.06.11-.06.34.11.16.11.33V33c0,.17-.05.17-.05.34v.34c0,.16.05.16.05.33v.67c0,.17-.05.17-.05.34s-.06.17-.06.34.06.16.06.33-.06.17-.06.34.06.28,0,.33-.23.12-.34.12H9.46c-.16,0-.16,0-.33,0S9,36.4,8.85,36.4s-.17.06-.34.06-.17,0-.33,0-.17,0-.34,0H7.56c-.17,0-.17-.06-.34-.06s-.16.06-.33.06H6.55c-.17,0-.17,0-.28,0s-.17-.11-.33-.11-.17.06-.34.06a.6.6,0,0,1-.34-.12A.62.62,0,0,1,5.15,36v-.34c0-.17.06-.17.06-.33S5.1,35.17,5.1,35s.05-.17.05-.34-.05-.16-.05-.33V34c0-.17.05-.17.05-.33v-.34c0-.17.06-.17.06-.34s-.06-.16-.06-.33-.05-.17-.05-.34.05-.17.05-.33.06-.17.06-.34V31.3c0-.16-.06-.16-.06-.33s.06-.17.06-.39-.06-.12-.06-.28V30c0-.22.06-.22.06-.39V28.9c0-.17-.06-.17-.06-.34v-.34c0-.16-.05-.16-.05-.33s.05-.17.05-.34.06-.17.06-.33-.11-.17-.11-.34.11-.17.11-.34-.06-.16-.06-.33S5.1,26,5.1,25.87s.11-.17.11-.33-.11-.17-.11-.34.11-.17.11-.34v-.33c0-.17-.06-.17-.06-.34v-1c0-.16-.05-.16-.05-.33s.11-.17.11-.34-.11-.17-.11-.33.05-.17.05-.34-.05-.17-.05-.34.05-.16.05-.33V18.09c0-.17-.05-.17-.05-.34s.11-.17.11-.33-.11-.17-.11-.34v-.34c0-.16.05-.16.05-.33s-.05-.17-.05-.34.05-.17.05-.33v-.68c0-.16.06-.16.06-.33s-.11-.17-.11-.34v-.67c0-.17.05-.17.05-.34v-.33c0-.17-.05-.17-.05-.34s.05-.17.05-.33V12c0-.17-.05-.17-.05-.34V11c0-.17.11-.17.11-.33s-.06-.17-.06-.34V10c0-.16-.05-.16-.05-.33s.05-.17.05-.39V9c0-.17-.05-.17-.05-.34s.05-.16.05-.33S5.1,8.12,5.1,8s.05-.17.05-.33.06-.17.06-.34V6.94c0-.16-.06-.16-.06-.33s-.05-.17-.05-.34.05-.17.05-.33V5.6A.6.6,0,0,0,5,5.26.68.68,0,0,0,4.7,5.1c-.16,0-.16.05-.33.05s-.17.06-.34.06-.11-.06-.28-.06-.17.06-.33.06H3.08c-.17,0-.17-.06-.34-.06s-.16-.05-.33-.05-.11.05-.28.05-.17.06-.34.06-.17-.06-.33-.06-.17-.05-.34-.05S1,5.15.84,5.15H.5c-.11,0-.28,0-.33-.11S.06,4.82.06,4.7s.05-.16.05-.33S0,4.2,0,4.09v-1c0-.17.06-.17.06-.34S0,2.63,0,2.46s.06-.16.06-.33V1.18C.06,1,0,1,0,.84V.5A.39.39,0,0,1,.17.17C.22.06.39.11.5.11S.73.06.84.06Z"/><path class="cls-1" d="M16.61,0h.73c.17,0,.17.06.33.06h1.74c.17,0,.17-.06.34-.06h.33c.17,0,.17.06.34.06h.33c.17,0,.17-.06.34-.06s.17.06.34.06h.72c.17,0,.17-.06.34-.06s.17.06.34.06S23,0,23.16,0s.17.06.34.06.17-.06.33-.06a.66.66,0,0,1,.34.06.8.8,0,0,1,.34.11c.11,0,.22-.06.33,0a.8.8,0,0,1,.34.11c.11.06.22.06.33.11s.17.11.28.17a.94.94,0,0,1,.28.22c.12.06.23.06.28.17s.17.17.23.23.11.22.17.28a.94.94,0,0,1,.22.28c.06.11.17.16.22.28a.39.39,0,0,1,.12.28.86.86,0,0,1,.11.33c0,.11.11.17.17.28a.76.76,0,0,0,.11.34.76.76,0,0,0,.05.33v.34c0,.17-.11.17-.11.34s.11.16.11.33v.34c0,.17-.05.17-.05.39v.34c0,.16.05.16.05.33V7c0,.17-.05.17-.05.34s.05.16.05.33-.05.17-.05.34.05.17.05.33-.05.17-.05.34.05.17.05.34v.72a.72.72,0,0,1-.11.34.75.75,0,0,1-.39.11H26.3c-.17,0-.17,0-.34,0s-.17,0-.28,0H25c-.17,0-.17,0-.34,0H23.39c-.17,0-.17,0-.34,0s-.22-.11-.28-.17a.35.35,0,0,1-.22-.28c0-.22.05-.22.05-.39V9c0-.17-.05-.17-.05-.34s.05-.17.05-.34-.05-.16-.05-.33.11-.17.11-.34V7c0-.17-.06-.17-.06-.39s.06-.17.06-.34-.06-.17-.06-.33.06-.17.06-.34a.42.42,0,0,0-.17-.34c-.06,0-.17,0-.34,0s-.16-.06-.28-.06H20.25c-.17,0-.17.06-.34.06s-.16-.11-.33-.11-.17.11-.34.11H18c-.11,0-.22-.06-.33,0s-.06.23-.06.34v.34c0,.16-.11.16-.11.33s.06.17.06.34v.33c0,.17,0,.17,0,.34V8.62c0,.17,0,.17,0,.34s-.06.17-.06.34.06.16.06.33,0,.17,0,.34v.67c0,.17-.11.17-.11.34s.11.16.11.33a2.11,2.11,0,0,1,0,.34V12c0,.17,0,.17,0,.34s0,.16,0,.33,0,.17,0,.34-.11.17-.11.33.06.17.06.34,0,.17,0,.34v.33c0,.17,0,.17,0,.34v.67c0,.17,0,.17,0,.34v.33c0,.17,0,.17,0,.34v.33c0,.17,0,.17,0,.34v.67c0,.17-.11.17-.11.34s.06.17.06.33-.06.17-.06.34.06.17.06.34-.06.16-.06.33.06.17.06.34,0,.17,0,.33,0,.17,0,.34-.06.17-.06.34v.33c0,.17.06.17.06.34v.33c0,.17,0,.17,0,.34s0,.17,0,.34v.67c0,.17,0,.17,0,.33s0,.17,0,.34v.67c0,.17-.06.17-.06.34s.11.17.11.33-.11.17-.11.34v.39c0,.11.06.11.06.28s0,.23,0,.39,0,.17,0,.34,0,.17,0,.34,0,.16,0,.33v.34c0,.17,0,.17,0,.33s0,.17,0,.34-.06.17-.06.34v.33c0,.17.06.17.06.34s0,.17,0,.33,0,.17,0,.34,0,.17,0,.34,0,.16,0,.33.11.17.16.28.17.11.28.11.17.06.34.06.17.06.34.06.16-.12.33-.12h.28c.17,0,.17.06.34.06s.17-.06.33-.06.17.12.34.12.17-.12.28-.12h.34c.16,0,.16.12.33.12h.34c.17,0,.17-.06.33-.06h.28a.52.52,0,0,0,.34-.11.5.5,0,0,0,.17-.34c0-.17-.06-.17-.06-.33s.06-.17.06-.34V29.9c0-.16-.06-.16-.06-.33s.06-.17.06-.34v-1c0-.16-.06-.16-.06-.33s.06-.17.06-.34v-.67c0-.17-.06-.17-.06-.34s-.05-.11-.05-.33.11-.17.11-.34v-.28c0-.17-.06-.17-.06-.33v-1c0-.17-.05-.17-.05-.34s.05-.17.05-.33.06-.17.06-.34-.06-.17-.06-.34v-.67c0-.17.06-.17.06-.33s-.11-.17-.11-.34.11-.17.11-.34a.62.62,0,0,0-.11-.33.5.5,0,0,0-.4-.11h-.33c-.11,0-.11,0-.28,0s-.17,0-.34,0h-.33c-.17,0-.17,0-.34,0s-.17-.11-.34-.11h-.33a.68.68,0,0,1-.34-.06c-.05-.05-.05-.22-.05-.33s-.06-.17-.06-.34.06-.17.06-.33V19c0-.17-.06-.17-.06-.34v-.33c0-.11.06-.11.06-.28v-.34c0-.17-.06-.17-.06-.33s.06-.17.06-.34-.06-.17-.06-.34.06-.11.06-.28-.06-.16-.06-.33a.45.45,0,0,1,.17-.28c.11-.11.17-.23.28-.23s.17.06.33.06.17.06.34.06.17-.06.34-.06h.33c.17,0,.17.06.34.06h.33c.17,0,.17-.06.34-.06h.67c.17,0,.17.06.34.06s.17-.12.33-.12.17.06.34.06h1c.16,0,.16-.06.33-.06s.17.06.34.06.17.06.34.06h.33c.17,0,.17-.06.34-.06h.33c.17,0,.17.06.34.06s.22,0,.28.11a.31.31,0,0,1,.17.28v.33c0,.17.05.17.05.34v.67c0,.17-.05.17-.05.34s.05.17.05.33-.05.17-.05.34v.67c0,.17.05.17.05.34s-.05.17-.05.33.05.17.05.34v.34c0,.16-.05.16-.05.33v2c0,.17.05.17.05.33s-.05.17-.05.34v.34c0,.16.05.16.05.33s-.05.17-.05.34v1.34c0,.17.05.17.05.34v.33c0,.17-.05.17-.05.34v.67c0,.17.05.17.05.34v.33c0,.17-.05.17-.05.34v3c0,.17.05.17.05.34v.34c0,.16-.11.16-.11.33s.11.23.11.34-.05.22-.05.33-.11.23-.17.34.06.22,0,.34-.11.16-.17.28-.17.16-.22.28-.06.22-.11.28l-.28.28c-.06,0-.06.22-.17.28l-.23.22-.33.17c-.06.05-.11.17-.23.22s-.22.06-.33.11-.17.17-.28.17a.7.7,0,0,1-.34.06.86.86,0,0,1-.33.11.85.85,0,0,0-.34.11c-.11,0-.22-.11-.34-.11s-.16.06-.33.06-.17-.06-.34-.06-.17.11-.33.11-.17-.11-.34-.11h-.34c-.22,0-.22.11-.39.11s-.17,0-.33,0-.17-.06-.34-.06-.17.11-.34.11-.16,0-.33,0-.17,0-.34,0-.17-.11-.33-.11h-.34c-.17,0-.17.11-.39.11s-.17-.11-.34-.11h-.33c-.17,0-.17.11-.34.11s-.17,0-.34,0-.16-.06-.33-.06-.17.06-.34.06-.17-.06-.39-.06-.11.11-.34.11-.22,0-.33,0H15.6c-.11-.06-.17-.12-.28-.17s-.22-.06-.33-.11-.23-.06-.34-.12a.48.48,0,0,0-.28-.11c-.11-.11-.22-.11-.34-.17l-.22-.22a.91.91,0,0,1-.22-.22c-.12-.12-.23-.17-.28-.23s-.06-.22-.17-.33S13,34.61,13,34.5s-.11-.17-.17-.28-.17-.17-.22-.28V33.6a.72.72,0,0,1-.11-.34.65.65,0,0,0-.06-.33c0-.11.06-.23.06-.34v-.33c0-.17-.06-.17-.06-.34v-.34c0-.16.06-.16.06-.33v-.34c0-.17-.06-.17-.06-.33V29.9c0-.16.06-.16.06-.33v-.34c0-.17-.06-.17-.06-.33V27.55c0-.17.06-.17.06-.33s-.06-.17-.06-.4v-.28c0-.16.06-.16.06-.39s-.06-.17-.06-.28.06-.22.06-.39-.12-.17-.12-.34.06-.16.06-.33v-.67c0-.17-.06-.17-.06-.34s.12-.17.12-.34-.12-.16-.12-.33.06-.17.06-.34.06-.17.06-.33v-.68c0-.16-.06-.16-.06-.33v-.34c0-.17.06-.17.06-.33s-.06-.17-.06-.34.06-.17.06-.34-.12-.16-.12-.33.12-.17.12-.34-.06-.17-.06-.33v-.34c0-.17-.06-.17-.06-.34s.06-.16.06-.33v-.34c0-.17.06-.17.06-.33v-.34c0-.17-.06-.17-.06-.34s-.06-.16-.06-.33v-.67c0-.17.12-.17.12-.34v-2c0-.16-.06-.16-.06-.33s-.06-.17-.06-.34.06-.17.06-.33v-1c0-.17.06-.17.06-.34s-.06-.17-.06-.33v-.34c0-.17.06-.17.06-.34s-.06-.16-.06-.33.06-.17.06-.34-.06-.17-.06-.33V8.68c0-.17-.06-.17-.06-.39s.06-.17.06-.28V7.28c0-.17.06-.17.06-.34V6.61c0-.17-.06-.17-.06-.34s-.06-.17-.06-.33.12-.17.12-.34-.06-.17-.06-.34V4.93c0-.17.06-.17.06-.34V3.92c0-.11-.06-.22-.06-.34a.86.86,0,0,1,.11-.33c0-.11,0-.23,0-.34s.11-.17.17-.28.06-.22.11-.33.11-.17.17-.28a1,1,0,0,1,.17-.28.79.79,0,0,1,.17-.28,1.27,1.27,0,0,0,.22-.28c.11-.06.17-.17.28-.23L14,.73l.34-.17a.55.55,0,0,1,.28-.11A.72.72,0,0,1,15,.34a.74.74,0,0,1,.33-.12c.06,0,.17,0,.34,0a.55.55,0,0,1,.28-.11c.11,0,.22.05.33.05S16.5,0,16.61,0Z"/></g></g></svg>