<svg xmlns="http://www.w3.org/2000/svg" viewBox="0 0 27.94 55.39"><defs><style>.cls-1{fill:#231f20;}</style></defs><g id="Layer_2" data-name="Layer 2"><g id="Layer_1-2" data-name="Layer 1"><path class="cls-1" d="M1.18,0c.16,0,.16.06.33.06S1.68,0,1.85,0s.17.06.33.06S2.35,0,2.52,0s.17.06.34.06S3,0,3.19,0s.17.06.34.06H4.87C5,.06,5,0,5.21,0s.17.06.33.06h3.7c.17,0,.17-.06.34-.06s.16.06.33.06h.67c.17,0,.17-.06.34-.06h.34c.16,0,.16.06.33.06h8.79c.17,0,.17-.06.34-.06s.17.06.34.06h.33c.17,0,.17-.06.34-.06s.17.06.33.06h5a.78.78,0,0,1,.34.05l.28.17a1.37,1.37,0,0,1,.17.28.78.78,0,0,1,.05.34V3.42c0,.11-.05.22-.05.33a.91.91,0,0,1-.17.23c-.11.11-.22.16-.28.22s-.22.06-.34.06H17.19a.76.76,0,0,0-.33,0c-.12,0-.17.11-.23.23a.4.4,0,0,0-.22.22.66.66,0,0,0-.06.34V19.77c0,.17-.05.17-.05.33s.05.17.05.34v5.38c0,.16-.05.16-.05.33s.05.17.05.34v1.62c0,.17-.05.17-.05.34s.05.17.05.33v1.35c0,.16-.05.16-.05.33s.05.17.05.34v.34c0,.16-.05.16-.05.33s.05.17.05.34v1c0,.11-.05.22-.05.33a1,1,0,0,1-.23.23c-.05.11-.17.16-.22.22s-.23.06-.34.06H12.43a.65.65,0,0,1-.33-.06c-.12-.06-.17-.11-.28-.17s-.12-.17-.17-.28a.65.65,0,0,1-.06-.33V30.46c0-.17.06-.17.06-.33s-.06-.17-.06-.34v-3.3c0-.17.06-.17.06-.34s-.06-.17-.06-.33V15.46c0-.17.06-.17.06-.34v-.67c0-.17-.06-.17-.06-.34v-.33c0-.17.06-.17.06-.34s-.06-.17-.06-.34v-.67c0-.17.06-.17.06-.33v-.34c0-.17-.06-.17-.06-.34v-.33c0-.17.06-.17.06-.28s-.06-.23-.06-.34v-2c0-.17.06-.17.06-.34s-.06-.17-.06-.34V5.1c0-.12-.05-.23-.05-.34a1,1,0,0,1-.17-.28,1.37,1.37,0,0,0-.28-.17.8.8,0,0,0-.34,0H.84A.7.7,0,0,1,.5,4.2,1,1,0,0,0,.22,4a1.15,1.15,0,0,1-.16-.28A.65.65,0,0,1,0,3.42V.9A.66.66,0,0,1,.06.56C.11.45.17.39.22.28A1,1,0,0,0,.5.11,1,1,0,0,1,.84,0Z"/><path class="cls-1" d="M27.89,38.2c0,.22.05.22.05.33v1c0,.22-.05.22-.05.34s.05.22.05.39-.05.17-.05.33.05.17.05.34v1.68a2.11,2.11,0,0,0-.05.34c0,.11.05.11.05.33V46c0,.17-.05.17-.05.34v1c0,.17.05.17.05.34V48c0,.16-.05.16-.05.33s.05.17.05.34-.05.17-.05.33.05.17.05.34V50c0,.17-.05.17-.05.34v.33c0,.17.05.17.05.34s-.05.17-.05.34.05.16.05.33a.45.45,0,0,1-.1.28.76.76,0,0,1-.11.34c-.16.11-.16,0-.26.17s-.11.16-.22.28A1,1,0,0,1,27,53c-.11.11,0,.17-.16.28a1.28,1.28,0,0,0-.27.22l-.21.23c-.1.11-.16.11-.26.22l-.22.23a1.44,1.44,0,0,0-.21.28l-.21.22a1.28,1.28,0,0,1-.27.22c-.1.17-.1.12-.21.23a1,1,0,0,1-.26.22c-.06.06-.16.06-.32.06H3.57a.63.63,0,0,1-.32-.06A.9.9,0,0,1,3,55.16c-.11-.11-.06-.16-.21-.28l-.22-.22c-.1-.11-.16-.11-.26-.22l-.22-.23C2,54.1,2,54,1.87,53.93l-.21-.22a1.68,1.68,0,0,0-.27-.23l-.21-.22A1.44,1.44,0,0,1,1,53a1.28,1.28,0,0,1-.27-.22c-.1-.12,0-.12-.21-.23s-.1-.11-.21-.28S.17,52.08.12,52A.45.45,0,0,1,0,51.69c0-.17.06-.17.06-.33S0,51.19,0,51s.06-.17.06-.34V49c0-.16-.06-.16-.06-.33s.06-.17.06-.34V48c0-.17-.06-.17-.06-.34s.06-.17.06-.34V44.64c0-.17-.06-.17-.06-.34s.06-.17.06-.34v-.33c0-.17-.06-.17-.06-.34s.06-.17.06-.33v-.34c0-.17-.06-.17-.06-.34s.06-.16.06-.33v-.34c0-.17-.06-.17-.06-.33v-.34c0-.17.06-.17.06-.34v-1c0-.17-.06-.17-.06-.34v-.67c0-.17.06-.17.06-.34V34.89c0-.17-.06-.17-.06-.33v-.34c0-.17.06-.17.06-.34v-.33c0-.17-.06-.17-.06-.34s.06-.17.06-.33S0,32.71,0,32.54s.06-.17.06-.34S0,32,0,31.87s.06-.17.06-.34v-1c0-.16-.06-.16-.06-.33v-.67c0-.17.06-.17.06-.34v-3.7c0-.11,0-.22,0-.28a1.39,1.39,0,0,1,.16-.28c.16-.11.11-.11.21-.22l.27-.28c.1-.11.05-.11.21-.28l.21-.22.21-.23a1.28,1.28,0,0,0,.27-.22l.21-.23A2.92,2.92,0,0,0,2.08,23l.22-.22c.1-.11.16-.11.26-.22a1.71,1.71,0,0,0,.22-.28c.1-.12.1-.06.21-.17s.16-.23.26-.23a.74.74,0,0,1,.32-.05H5.16c.16,0,.16-.06.32-.06s.16.06.32.06h.64c.16,0,.16-.06.32-.06s.16.06.32.06h3.5c.16,0,.16-.06.32-.06s.16.06.32.06.16-.06.32-.06.16.06.31.06h2.24c.15,0,.15-.06.31-.06s.16.06.32.06H16c.16,0,.16-.06.32-.06s.15.06.31.06h2.23c.16,0,.16-.06.32-.06h.32c.16,0,.16.06.32.06h.32c.16,0,.16-.06.32-.06s.16.06.32.06h3.55c.06,0,.22,0,.27.05a1.3,1.3,0,0,1,.26.17c.11.06.11.23.16.28a.76.76,0,0,1,.11.34c0,.17-.05.17-.05.33v.28c0,.17.05.17.05.34v.62c0,.16-.05.16-.05.33s.05.17.05.28-.05.17-.05.34a.65.65,0,0,1-.06.33.29.29,0,0,1-.16.28c-.05.06-.15.17-.26.17s-.21.06-.27.06H6c-.15,0-.26,0-.31.05a1.42,1.42,0,0,0-.27.17l-.21.23c-.11.11-.11.16-.21.22a1.14,1.14,0,0,0-.22.28,1.14,1.14,0,0,0-.16.22.93.93,0,0,0-.1.34c0,.17,0,.17,0,.34v1c0,.17,0,.17,0,.34v.34c0,.16,0,.16,0,.33s0,.17,0,.34,0,.17,0,.33v.34c0,.17,0,.17,0,.34v2.35c0,.17,0,.17,0,.33v.34c0,.17,0,.17,0,.34V42c0,.17-.06.17-.06.33v.34c0,.17.06.17.06.34v1c0,.17-.06.17-.06.34s.06.17.06.34v.67c0,.17-.06.17-.06.33s.06.17.06.34-.06.17-.06.34v.33c0,.17.06.17.06.34s-.06.17-.06.33v.34c0,.17.06.17.06.34s-.06.16-.06.33.06.17.06.34-.06.17-.06.33v.68a.65.65,0,0,0,.06.33.85.85,0,0,0,.21.28l.21.23a.56.56,0,0,0,.21.16c.11.12.06.17.16.28a1.42,1.42,0,0,1,.27.17.68.68,0,0,0,.32.11c.16,0,.16-.05.32-.05h7.38c.16,0,.16.05.32.05s.16-.05.31-.05h7.07c.1,0,.1.05.32.05s.15-.05.26-.05.27,0,.32-.06a.78.78,0,0,0,.26-.17l.22-.22.21-.22c.11-.12.11-.17.21-.23s.11-.17.16-.28a.76.76,0,0,0,.05-.33v-.34c0-.17.06-.17.06-.34s-.06-.11-.06-.33v-.62c0-.17.06-.17.06-.33V46.37c0-.17-.06-.17-.06-.33s.06-.17.06-.34V44.41c0-.17-.06-.17-.06-.33s.06-.17.06-.34V42.12c0-.12-.06-.23-.06-.34a1.41,1.41,0,0,0-.15-.28c-.11-.11-.22-.11-.32-.17a.44.44,0,0,0-.27-.11h-.64c-.16,0-.16.06-.31.06h-1c-.16,0-.16-.06-.32-.06s-.16.06-.32.06-.16-.06-.32-.06-.16.06-.32.06h-.95c-.16,0-.16-.06-.32-.06h-.32c-.21,0-.21.06-.37.06s-.16-.06-.32-.06h-1c-.16,0-.16.06-.32.06s-.15-.06-.31-.06-.16.06-.32.06-.16-.06-.32-.06-.16.06-.32.06H13.18c-.1,0-.21-.06-.32-.06s-.16-.11-.26-.22-.11-.17-.16-.23a.91.91,0,0,1,0-.33v-.68c0-.16,0-.16,0-.28s0-.16,0-.33V37.86a1,1,0,0,1,.1-.28.48.48,0,0,1,.11-.28.85.85,0,0,1,.26-.22h.32L13.5,37c.16,0,.16.06.32.06h.32c.16,0,.16-.06.32-.06s.16.06.32.06.15-.06.31-.06h.64c.16,0,.16.06.32.06h1c.16,0,.16-.06.31-.06s.16.06.32.06S17.8,37,18,37h.64c.16,0,.16.06.32.06s.16-.06.26-.06.21.06.32.06h.64c.16,0,.16-.06.32-.06s.16.06.32.06.15-.06.31-.06h.32c.16,0,.16.06.32.06h.32c.16,0,.16-.06.32-.06h.95c.16,0,.16.06.32.06S23.8,37,24,37s.16.06.32.06.16-.06.32-.06.16.06.32.06h.32c.16,0,.16-.06.31-.06s.16.06.32.06h.64c.16,0,.16-.06.32-.06h.32a.42.42,0,0,1,.26.11,1.05,1.05,0,0,1,.27.17.54.54,0,0,1,.21.28v.62Z"/><path class="cls-1" d="M14.58,41.2l-.47,0c-.17,0-.17.06-.33.06h-1.4c-.12,0-.23-.06-.34-.06s-.17-.11-.28-.22-.11-.17-.17-.23a.91.91,0,0,1-.05-.33v-.68c0-.16.05-.16.05-.28s-.05-.16-.05-.33V37.86a.79.79,0,0,1,.11-.28.42.42,0,0,1,.11-.28.9.9,0,0,1,.28-.22c.11,0,.22-.06.34-.06h.33c.17,0,.17.06.34.06h.33c.17,0,.17-.06.34-.06s.17.06.34.06.16,0,.32,0Z"/></g></g></svg>